<svg xmlns="http://www.w3.org/2000/svg" xmlns:xlink="http://www.w3.org/1999/xlink" width="25" height="25" viewBox="0 0 1075 1000">
    <defs><linearGradient x1="76.61%" y1="17.77%" x2="46.79%" y2="90.31%" id="A"><stop stop-color="#fff" stop-opacity="0" offset="0%"/><stop stop-color="#fff" stop-opacity=".01" offset="45.15%"/><stop stop-color="#fff" stop-opacity=".45" offset="66.33%"/><stop stop-color="#fff" offset="71.33%"/><stop stop-color="#fff" offset="100%"/></linearGradient><linearGradient x1="100%" y1="11.65%" x2="0%" y2="37.65%" id="B"><stop stop-color="#fff" stop-opacity="0" offset="0%"/><stop stop-color="#fff" stop-opacity=".01" offset="26.41%"/><stop stop-color="#fff" stop-opacity=".03" offset="28.79%"/><stop stop-color="#fff" stop-opacity=".4" offset="74.44%"/><stop stop-color="#fff" stop-opacity=".9" offset="89%"/><stop stop-color="#fff" offset="100%"/></linearGradient><linearGradient x1="9.43%" y1="31.37%" x2="32.15%" y2="85.04%" id="C"><stop stop-color="#fff" stop-opacity=".01" offset="20%"/><stop stop-color="#fff" stop-opacity=".1" offset="29%"/><stop stop-color="#fff" offset="85%"/><stop stop-color="#fff" offset="100%"/></linearGradient><linearGradient x1="20.62%" y1="16.16%" x2="81.6%" y2="13.84%" id="D"><stop stop-color="#fff" stop-opacity=".1" offset="7%"/><stop stop-color="#fff" stop-opacity=".8" offset="77%"/><stop stop-color="#fff" offset="84%"/><stop stop-color="#fff" offset="100%"/></linearGradient><linearGradient x1="43.41%" y1="89.73%" x2="85.32%" y2="-.98%" id="E"><stop stop-color="#fff" stop-opacity="0" offset="0%"/><stop stop-color="#fff" stop-opacity=".1" offset="33.25%"/><stop stop-color="#fff" stop-opacity=".65" offset="75.12%"/><stop stop-color="#fff" offset="82.71%"/><stop stop-color="#fff" offset="100%"/></linearGradient><linearGradient x1="51.5%" y1="105.48%" x2="60.43%" y2="1.78%" id="F"><stop stop-color="#fff" stop-opacity=".03" offset="0%"/><stop stop-color="#fff" stop-opacity=".03" offset="52.2%"/><stop stop-color="#fff" stop-opacity=".24" offset="82.31%"/><stop stop-color="#fff" stop-opacity=".34" offset="87.31%"/><stop stop-color="#fff" offset="98.01%"/><stop stop-color="#fff" offset="100%"/></linearGradient><linearGradient x1="67.46%" y1="72.31%" x2="61.21%" y2="-3.46%" id="G"><stop stop-color="#fff" stop-opacity=".03" offset="0%"/><stop stop-color="#fff" stop-opacity=".12" offset="38.7%"/><stop stop-color="#fff" stop-opacity=".28" offset="58%"/><stop stop-color="#fff" stop-opacity=".7" offset="69%"/><stop stop-color="#fff" offset="69%"/><stop stop-color="#fff" offset="100%"/></linearGradient><linearGradient x1="61.85%" y1="67.82%" x2="22.78%" y2="43.26%" id="H"><stop stop-color="#fff" stop-opacity="0" offset="0%"/><stop stop-color="#fff" stop-opacity=".1" offset="27%"/><stop stop-color="#fff" stop-opacity=".23" offset="36%"/><stop stop-color="#fff" offset="54%"/><stop stop-color="#fff" offset="100%"/></linearGradient><linearGradient x1="98.52%" y1="28.47%" x2="17.53%" y2="78.66%" id="I"><stop stop-color="#5596e6" offset="0%"/><stop stop-color="#af6ee8" offset="100%"/></linearGradient><path id="J" d="M537.44 274.57c-39.75 0-79.6 7-118.02 21.1-85.68 31.4-153.97 94.22-192.3 176.88a338 338 0 0 0-10.63 260.75c31.47 85.5 94.43 153.64 177.27 191.9a340 340 0 0 0 261.32 10.6c85.67-31.4 153.96-94.2 192.3-176.87h0A338 338 0 0 0 858 498.15a339 339 0 0 0-177.26-191.88c-45.7-21.1-94.42-31.7-143.3-31.7m-.4 724.87c-54.98 0-109.8-11.92-161.18-35.65-93.17-43-163.98-119.66-199.38-215.82a380.2 380.2 0 0 1 11.95-293.28c89-191.92 317.88-275.82 510.2-187.02 93.18 43 163.98 119.66 199.38 215.82 35.4 96.17 31.15 200.32-11.96 293.3a381.5 381.5 0 0 1-216.28 198.94 385.2 385.2 0 0 1-132.75 23.72"/><path id="K" d="M699.7 388.7c-72.9 0-163.8 25.45-250.26 75.26-160.4 92.4-255.72 239.98-208.12 322.26 22.22 38.4 73.17 58.58 142.7 56.68 74.5-1.98 160.1-28.75 241.05-75.4 160.4-92.4 255.7-239.98 208.12-322.25-21.95-37.92-71.13-56.55-133.48-56.55M375.36 885.53c-81.24 0-141.74-27.53-170.97-78.06-61.2-105.77 37.07-272.85 223.72-380.37 186.63-107.52 380.76-108.9 441.98-3.14 61.2 105.77-37.08 272.85-223.72 380.37-87 50.1-179.77 78.9-261.24 81.07-3.3.1-6.55.13-9.78.13"/><path id="L" d="M670.17 311c-75.62 0-187.2 92.9-265.77 228.68-92.6 160.07-110.57 330.05-39.2 371.16 71.35 41.15 209.92-59.37 302.52-219.45 46.93-81.1 75.9-165.7 81.6-238.2 5.18-66-10.27-114.46-42.4-132.96-10.84-6.25-23.23-9.22-36.77-9.22m-269.56 651.2c-20.55 0-39.67-4.7-56.73-14.5-94.53-54.46-84.17-243.03 23.6-429.28 107.76-186.24 266.2-289.5 360.78-235.03 47.6 27.43 70.2 88.9 63.58 173.13-6.18 78.7-37.14 169.67-87.2 256.15-88.32 152.65-210.72 249.54-304.04 249.54"/></defs><mask id="M" x="0" y="0" width="200" height="100"><g fill-rule="evenodd"><path d="M123.55 398.67c-3.62 0-7.28-.9-10.64-2.85l-102.25-58.9c-10.2-5.88-13.7-18.9-7.8-29.06a21.4 21.4 0 0 1 29.12-7.79l102.25 58.9c10.2 5.88 13.7 18.9 7.8 29.06-3.95 6.82-11.12 10.64-18.48 10.64zm174.9-174.46c-7.37 0-14.53-3.8-18.5-10.64L220.9 111.55c-5.88-10.17-2.4-23.18 7.8-29.06 10.24-5.87 23.24-2.37 29.13 7.8l59.04 102.03c5.88 10.17 2.4 23.18-7.8 29.06-3.36 1.93-7.02 2.85-10.64 2.85zm238.8-63.85a21.3 21.3 0 0 1-21.32-21.27V21.27a21.3 21.3 0 1 1 42.64 0v117.8a21.3 21.3 0 0 1-21.32 21.27zm238.82 63.85c-3.62 0-7.28-.92-10.64-2.85-10.2-5.88-13.7-18.88-7.8-29.06l59.03-102.03a21.4 21.4 0 0 1 29.12-7.79c10.2 5.88 13.7 18.88 7.8 29.06l-59.03 102.03c-3.95 6.82-11.12 10.64-18.5 10.64zm174.9 174.46c-7.37 0-14.53-3.8-18.5-10.64-5.9-10.17-2.4-23.18 7.8-29.06l102.24-58.9c10.22-5.85 23.24-2.38 29.12 7.8s2.4 23.18-7.8 29.06l-102.24 58.9c-3.36 1.93-7.02 2.85-10.64 2.85z" fill="#fff"/><path d="M426.14 807.74c163.15 94 345.78 84.35 407.04-21.54 61.26-105.88-21.66-268.5-184.83-362.5-163.18-94-345.77-84.35-407.03 21.53-61.27 105.87 21.65 268.5 184.82 362.5m223.04 106.43c-77.1 0-163.2-22.83-244.35-69.58C221.3 738.84 131.38 550.16 204.4 423.96c73-126.18 281.73-142.83 465.27-37.1C853.2 492.6 943.1 681.28 870.1 807.47c-40.73 70.38-123.68 106.7-220.92 106.7" fill="url(#A)" transform="matrix(.9998 -.0175 .0175 .9998 -10.664 9.47)"/><path d="M426.14 807.74c163.15 94 345.78 84.35 407.04-21.54 61.26-105.88-21.66-268.5-184.83-362.5-163.18-94-345.77-84.35-407.03 21.53-61.27 105.87 21.65 268.5 184.82 362.5M648.7 913.57c-77.03 0-163.02-22.8-244.1-69.5-183.35-105.63-273.17-294.13-200.23-420.2 72.93-126.05 281.45-142.7 464.8-37.06 183.35 105.63 273.18 294.13 200.24 420.2-40.7 70.3-123.56 106.6-220.7 106.6" fill="url(#B)" transform="matrix(.9998 -.0175 .0175 .9998 -10.6589 9.4637)"/><use xlink:href="#J" fill="url(#C)"/><use xlink:href="#J" fill="url(#D)"/><use xlink:href="#K" fill="url(#E)"/><use xlink:href="#K" fill="url(#F)"/><use xlink:href="#L" fill="url(#G)"/><use xlink:href="#L" fill="url(#H)"/></g></mask><g fill="url(#I)" mask="url(#M)" fill-rule="evenodd"><path d="M123.55 398.67c-3.62 0-7.28-.9-10.64-2.85l-102.25-58.9c-10.2-5.88-13.7-18.9-7.8-29.06a21.4 21.4 0 0 1 29.12-7.79l102.25 58.9c10.2 5.88 13.7 18.9 7.8 29.06-3.95 6.82-11.12 10.64-18.48 10.64zm174.9-174.46c-7.37 0-14.53-3.8-18.5-10.64L220.9 111.55c-5.88-10.17-2.4-23.18 7.8-29.06 10.24-5.87 23.24-2.37 29.13 7.8l59.04 102.03c5.88 10.17 2.4 23.18-7.8 29.06-3.36 1.93-7.02 2.85-10.64 2.85zm238.8-63.85a21.3 21.3 0 0 1-21.32-21.27V21.27a21.3 21.3 0 1 1 42.64 0v117.8a21.3 21.3 0 0 1-21.32 21.27zm238.82 63.85c-3.62 0-7.28-.92-10.64-2.85-10.2-5.88-13.7-18.88-7.8-29.06l59.03-102.03a21.4 21.4 0 0 1 29.12-7.79c10.2 5.88 13.7 18.88 7.8 29.06l-59.03 102.03c-3.95 6.82-11.12 10.64-18.5 10.64zm174.9 174.46c-7.37 0-14.53-3.8-18.5-10.64-5.9-10.17-2.4-23.18 7.8-29.06l102.24-58.9c10.22-5.85 23.24-2.38 29.12 7.8s2.4 23.18-7.8 29.06l-102.24 58.9c-3.36 1.93-7.02 2.85-10.64 2.85zM537.03 999.44c-54.98 0-109.8-11.92-161.18-35.65-93.17-43-163.98-119.66-199.38-215.82a380.2 380.2 0 0 1 11.95-293.28c89-191.92 317.88-275.82 510.2-187.02 93.18 43 163.98 119.66 199.38 215.82 35.4 96.17 31.15 200.32-11.96 293.3a381.5 381.5 0 0 1-216.28 198.94 385.2 385.2 0 0 1-132.75 23.72z"/></g></svg>