<svg xmlns="http://www.w3.org/2000/svg" width="152.622" height="30.911" viewBox="0 0 152.622 30.911">
  <g id="Group_164194" data-name="Group 164194" transform="translate(-5776 73)">
    <g id="Group_164193" data-name="Group 164193" transform="translate(0 10)">
      <path id="Path_43" data-name="Path 43" d="M206.032,11.893H205.3V11.6h1.829v.293H206.4v2.049h-.366Z" transform="translate(5718.858 -87.02)" fill="#4e5054"/>
      <path id="Path_44" data-name="Path 44" d="M209.224,13.942l-.659-1.976v1.976H208.2V11.6h.585l.585,1.9.585-1.9h.585v2.342h-.293V11.966l-.659,1.976Z" transform="translate(5718.081 -87.02)" fill="#4e5054"/>
      <path id="Path_45" data-name="Path 45" d="M22.045,2.956a1.39,1.39,0,1,1,0,2.781h-.073A1.36,1.36,0,0,1,20.655,4.42,1.748,1.748,0,0,1,21.021,3.4a1.329,1.329,0,0,1,1.024-.439m0-1.756A3.148,3.148,0,0,0,21.9,7.493h.146a3.123,3.123,0,0,0,3.147-3.147A3.123,3.123,0,0,0,22.045,1.2Z" transform="translate(5769.467 -84.2)" fill="#ff4f1f"/>
      <path id="Path_46" data-name="Path 46" d="M17.108,30.622a3.22,3.22,0,1,1,0,6.439H13.669a3.22,3.22,0,1,1,0-6.439h3.439m0-2.122H13.669a5.269,5.269,0,0,0,0,10.537h3.439a5.269,5.269,0,0,0,0-10.537Z" transform="translate(5772.283 -91.638)" fill="#ff4f1f"/>
      <path id="Path_47" data-name="Path 47" d="M15.391,13.722a3.22,3.22,0,1,1,0,6.439H7.269a3.22,3.22,0,1,1,0-6.439h8.122m0-2.122H7.269a5.269,5.269,0,0,0,0,10.537h8.122a5.269,5.269,0,0,0,0-10.537Z" transform="translate(5774 -87.034)" fill="#ff4f1f"/>
      <path id="Path_48" data-name="Path 48" d="M66.1,34.577V11.6H79.052v2.268H68.442v7.976h9.513v2.2H68.442v8.269h10.61v2.268Z" transform="translate(5756.199 -87.105)" fill="#4e5054"/>
      <path id="Path_49" data-name="Path 49" d="M118,34.577V11.6h12.952v2.268h-10.61v7.976h9.513v2.2h-9.513v8.269h10.61v2.268Z" transform="translate(5742.276 -87.105)" fill="#4e5054"/>
      <path id="Path_50" data-name="Path 50" d="M167.957,34.577V25.064L160.2,11.6h2.634l6.293,11.049L175.42,11.6h2.561L170.3,25.064v9.513Z" transform="translate(5730.956 -87.105)" fill="#4e5054"/>
      <path id="Path_51" data-name="Path 51" d="M105.752,34.577V11.6h-2.268V30.333L92.142,11.6H89.8V34.577h2.342V15.844l11.342,18.733Z" transform="translate(5749.842 -87.105)" fill="#4e5054"/>
      <path id="Path_52" data-name="Path 52" d="M46.757,24.591h5.488V26.42c0,4.464-2.854,6.073-5.488,6.073s-5.488-1.61-5.488-6.073V19.542c0-4.464,2.854-6.073,5.488-6.073a5.215,5.215,0,0,1,5.415,4.683H54.44A7.438,7.438,0,0,0,46.757,11.2C42.073,11.2,39,14.566,39,19.542V26.42c0,4.976,3.147,8.342,7.757,8.342,4.683,0,7.757-3.366,7.757-8.342v-4.1H46.757Z" transform="translate(5763.469 -86.998)" fill="#4e5054"/>
      <path id="Path_53" data-name="Path 53" d="M141.9,27.545a4.963,4.963,0,0,0,5.122,4.976c2.927,0,4.464-1.39,4.464-4.025a3.823,3.823,0,0,0-3.146-3.805l-3.878-1.024a5.967,5.967,0,0,1-4.537-6.147c0-3.732,2.634-6.22,6.586-6.22,4.537,0,6.513,3.147,6.952,6.293h-2.268c-.512-2.634-2.2-4.025-4.61-4.025-2.634,0-4.317,1.537-4.317,3.951a3.868,3.868,0,0,0,3,3.951l4.025,1.1a6.062,6.062,0,0,1,4.61,6.073c0,3.878-2.634,6.293-6.805,6.293-5.2,0-7.317-3.951-7.391-7.244Z" transform="translate(5736.456 -87.025)" fill="#4e5054"/>
      <path id="Path_54" data-name="Path 54" d="M188.2,27.545a4.963,4.963,0,0,0,5.122,4.976c2.927,0,4.464-1.39,4.464-4.025a3.823,3.823,0,0,0-3.147-3.805l-3.878-1.024a5.967,5.967,0,0,1-4.537-6.147c0-3.732,2.634-6.22,6.586-6.22,4.537,0,6.513,3.147,6.952,6.293h-2.268c-.512-2.634-2.2-4.025-4.61-4.025-2.634,0-4.317,1.537-4.317,3.951a3.868,3.868,0,0,0,3,3.951l4.025,1.1a6.062,6.062,0,0,1,4.61,6.073c0,3.878-2.634,6.293-6.805,6.293-5.2,0-7.317-3.951-7.391-7.244Z" transform="translate(5724.036 -87.025)" fill="#4e5054"/>
    </g>
  </g>
</svg>
