<?xml version="1.0" encoding="UTF-8"?>
<svg id="Layer_2" xmlns="http://www.w3.org/2000/svg" viewBox="0 0 561.18 54.17"><defs><style>.cls-1{fill:#3694fd;}</style></defs><g id="Layer_1-2"><g id="NiCE_x5F_Cognigy_x5F_on_white"><path class="cls-1" d="M53.21.01c-3.7-.23-6.75,2.82-6.52,6.52.19,3.05,2.67,5.53,5.72,5.72,3.7.23,6.75-2.82,6.52-6.52-.19-3.05-2.67-5.53-5.72-5.72"/><path d="M39.81,3.85h-9.86c-.33,0-.59.26-.59.59v28.93c0,.2-.27.27-.37.1L11.91,4.14c-.11-.18-.3-.29-.51-.29H.59c-.32,0-.59.26-.59.59v48.03c0,.33.26.59.59.59h9.87c.32,0,.59-.26.59-.59v-28.81c0-.2.26-.27.36-.1l17.07,29.21c.1.18.3.29.51.29h10.82c.32,0,.59-.26.59-.59V4.44c0-.33-.26-.59-.59-.59"/><path d="M57.18,15.48c-1.38.3-2.85.46-4.37.46s-2.99-.16-4.37-.46c-.37-.08-.71.2-.71.57v36.41c0,.33.26.59.59.59h8.99c.33,0,.59-.26.59-.59V16.06c0-.37-.35-.65-.71-.57"/><path d="M144.5,44.05h-20.54c-.11,0-.2-.09-.2-.2v-10.7c0-.11.09-.2.2-.2h16.76c.32,0,.59-.26.59-.59v-7.83c0-.33-.26-.59-.59-.59h-16.76c-.11,0-.2-.09-.2-.2v-10.7c0-.11.09-.2.2-.2h20.54c.32,0,.59-.26.59-.59v-7.83c0-.32-.26-.59-.59-.59h-31.19c-.33,0-.59.26-.59.59v48.03c0,.33.26.59.59.59h31.19c.32,0,.59-.26.59-.59v-7.83c0-.33-.26-.59-.59-.59"/><path d="M105.86,34.83h-10.43c-.28,0-.53.2-.58.48-.48,2.66-1.39,4.77-2.73,6.35-1.5,1.78-3.63,2.67-6.38,2.67-2.12,0-3.93-.65-5.46-1.94-1.52-1.29-2.7-3.12-3.52-5.48-.82-2.36-1.24-5.15-1.24-8.39s.39-5.91,1.17-8.32c.78-2.4,1.95-4.27,3.49-5.61,1.54-1.34,3.42-2.01,5.62-2.01,2.49,0,4.53.83,6.09,2.49,1.37,1.46,2.32,3.41,2.85,5.86.06.27.3.46.57.46h10.39c.37,0,.65-.34.58-.7-1.03-5.65-3.15-10.02-6.36-13.11-3.36-3.23-8.07-4.85-14.12-4.85-4.4,0-8.23,1.06-11.49,3.19-3.26,2.13-5.77,5.12-7.52,8.98-1.76,3.86-2.63,8.4-2.63,13.62s.92,10.01,2.76,13.83c1.84,3.81,4.38,6.74,7.62,8.77,3.24,2.03,6.93,3.05,11.07,3.05s7.47-.76,10.34-2.29c2.88-1.52,5.2-3.73,6.98-6.62,1.67-2.71,2.83-5.95,3.49-9.74.06-.36-.21-.7-.58-.7"/><rect x="175.39" y="3.85" width="1.96" height="49.21"/><g id="original"><path d="M541.16,51.93v-19.5c0-.31.25-.57.57-.57h2.71c11.13,0,16.65-5.32,16.65-16.05l.1-8.74v-2.28c0-.31-.25-.57-.57-.57h-8.91c-.31,0-.57.25-.57.57v9.78c0,5.22-2.66,7.79-8.08,7.79h-13.89c-5.32,0-7.98-2.56-7.98-7.79l-.09-9.79c0-.31-.26-.56-.57-.56h-8.82c-.31,0-.57.25-.57.57v11.02c0,10.73,5.52,16.05,16.65,16.05h2.75c.31,0,.57.25.57.57v19.5c0,.31.25.57.57.57h8.91c.31,0,.57-.25.57-.57Z"/><path d="M453.76,20.88v14.97c0,9.21,7.47,16.68,16.68,16.68h31.09c.31,0,.57-.25.57-.57v-24.64c0-.31-.25-.57-.57-.57h-8.53c-.31,0-.57.25-.57.57v14.97c0,.31-.25.57-.57.57h-20.63c-5.2,0-7.8-2.59-7.8-7.77v-13.5c0-5.16,2.59-7.73,7.77-7.73h30.33c.31,0,.57-.25.57-.57V4.77c0-.31-.25-.57-.57-.57h-31.09c-9.21,0-16.68,7.47-16.68,16.68Z"/><path d="M225.41,13.87h30.33c.31,0,.57-.25.57-.57V4.77c0-.31-.25-.57-.57-.57h-31.09c-9.21,0-16.68,7.47-16.68,16.68v14.97c0,9.21,7.47,16.68,16.68,16.68h31.09c.31,0,.57-.25.57-.57v-8.53c0-.31-.25-.57-.57-.57h-30.3c-5.2,0-7.8-2.59-7.8-7.77v-13.5c0-5.16,2.59-7.73,7.77-7.73Z"/><path d="M417.37,52.51h9c.31,0,.57-.25.57-.57V4.74c0-.31-.25-.57-.57-.57h-8.53c-.31,0-.57.25-.57.57v31.57c0,.53-.66.77-1,.37l-27.64-32.3c-.11-.13-.27-.2-.43-.2h-9.03c-.31,0-.57.25-.57.57v47.2c0,.31.25.57.57.57h8.53c.31,0,.57-.25.57-.57v-31.57c0-.53.66-.77,1-.37l27.67,32.31c.11.13.27.2.43.2Z"/><path d="M296.2,52.49c10.74-.02,16.11-5.39,16.11-16.11v-15.54c0-9.21-7.47-16.68-16.68-16.68h-14.97c-9.21,0-16.68,7.47-16.68,16.68v15.54c0,10.74,5.37,16.11,16.11,16.11v.03l16.11-.03ZM273.64,34.2v-12.32c0-5.37,2.15-8.06,6.44-8.06h13.93c4.76,0,8.62,3.86,8.62,8.62v11.75c0,4.76-3.86,8.62-8.62,8.62h-11.75c-4.76,0-8.62-3.86-8.62-8.62Z"/><path d="M338.24,13.87h30.33c.31,0,.57-.25.57-.57V4.77c0-.31-.25-.57-.57-.57h-31.09c-9.21,0-16.68,7.47-16.68,16.68v14.97c0,9.21,7.47,16.68,16.68,16.68h31.09c.31,0,.57-.25.57-.57v-24.64c0-.31-.25-.57-.57-.57h-8.53c-.31,0-.57.25-.57.57v14.97c0,.31-.25.57-.57.57h-20.63c-5.2,0-7.8-2.59-7.8-7.77v-13.5c0-5.16,2.59-7.73,7.77-7.73Z"/><path class="cls-1" d="M440.87.73c-3.62-.23-6.6,2.76-6.37,6.37.19,2.98,2.61,5.41,5.6,5.6,3.62.23,6.6-2.76,6.37-6.37-.19-2.98-2.61-5.41-5.6-5.6Z"/><path d="M444.76,15.86c-1.35.29-2.78.45-4.27.45s-2.93-.16-4.27-.45c-.36-.08-.7.2-.7.56v35.62c0,.32.26.58.58.58h8.79c.32,0,.58-.26.58-.58V16.42c0-.37-.34-.64-.7-.56Z"/></g></g></g></svg>