<svg width="143" height="43" xmlns="http://www.w3.org/2000/svg"><g fill="none" fill-rule="evenodd"><path d="M0 0h43v43H0V0z" fill="#FFF"/><path d="M16.2 1.24C21.62-.15 27.61.66 32.39 3.61c6.02 3.6 9.95 10.41 10.05 17.42.22 7.08-3.47 14.1-9.4 17.95-6.6 4.44-15.73 4.61-22.47.39C3.7 35.27-.31 27 .72 19.06 1.55 10.67 8.03 3.27 16.2 1.24z" fill="#010101"/><path d="M15.37 4.67c10.24-4.1 22.8 3.47 23.86 14.45 1.65 9.88-6.55 19.92-16.56 20.21-9.52.95-18.72-7.12-18.99-16.68-.71-7.74 4.39-15.42 11.69-17.98z" fill="#FFF"/><path d="M16.4 20.44c4.59-3.75 9.08-7.63 13.77-11.27-2.46 3.78-4.99 7.51-7.45 11.29-2.11.01-4.22.01-6.32-.02zM20.28 22.53c2.12 0 4.23 0 6.34.03-4.62 3.73-9.09 7.64-13.79 11.27 2.46-3.78 4.99-7.52 7.45-11.3z" fill="#010101"/><path d="M59.864 28.424c.864.48 2.136.816 3.552.816 3.096 0 4.752-1.536 4.752-3.648-.024-1.728-1.008-2.808-3.12-3.576-1.488-.528-2.04-.888-2.04-1.632 0-.72.576-1.224 1.632-1.224 1.032 0 1.968.384 2.472.672l.576-2.088c-.672-.36-1.8-.696-3.096-.696-2.712 0-4.416 1.608-4.416 3.672-.024 1.368.936 2.616 3.216 3.408 1.44.504 1.92.912 1.92 1.704 0 .768-.576 1.296-1.872 1.296-1.056 0-2.328-.432-3-.84l-.576 2.136zm15.032-11.376c-3.528 0-6.048 2.352-6.048 6.192 0 3.744 2.544 6.024 5.856 6.024 2.976 0 6-1.92 6-6.216 0-3.552-2.328-6-5.808-6zm-.072 2.16c2.016 0 2.832 2.088 2.832 3.912 0 2.352-1.176 4.008-2.856 4.008-1.8 0-2.904-1.704-2.904-3.96 0-1.944.84-3.96 2.928-3.96zm15.488 7.248a5.773 5.773 0 01-2.328.456c-2.016 0-3.576-1.368-3.576-3.768-.024-2.136 1.32-3.792 3.576-3.792 1.056 0 1.752.24 2.232.456l.528-2.208c-.672-.312-1.776-.552-2.856-.552-4.104 0-6.504 2.736-6.504 6.24 0 3.624 2.376 5.952 6.024 5.952 1.464 0 2.688-.312 3.312-.6l-.408-2.184zm4.544-14.496h-2.952V29h2.952v-3.984l1.008-1.176 3.36 5.16h3.624l-4.944-6.912 4.32-4.776h-3.552L95.84 21.08c-.312.408-.648.912-.936 1.368h-.048V11.96zm18.008 12.024c.048-.264.096-.696.096-1.248 0-2.568-1.248-5.688-5.04-5.688-3.744 0-5.712 3.048-5.712 6.288 0 3.576 2.232 5.904 6.024 5.904 1.68 0 3.072-.312 4.08-.72l-.432-2.04c-.888.336-1.872.528-3.24.528-1.872 0-3.528-.912-3.6-3.024h7.824zm-7.824-2.064c.12-1.2.888-2.856 2.712-2.856 1.968 0 2.448 1.776 2.424 2.856h-5.136zm9.8-7.248v2.64h-1.68v2.208h1.68v5.496c0 1.536.288 2.592.912 3.264.552.6 1.464.96 2.544.96.936 0 1.704-.12 2.136-.288l-.048-2.256a4.361 4.361 0 01-1.152.144c-1.128 0-1.512-.744-1.512-2.16v-5.16h2.808v-2.208h-2.808v-3.336l-2.88.696zm8.24 14.592c1.104 0 1.824-.816 1.824-1.896 0-1.128-.744-1.896-1.824-1.896-1.056 0-1.824.792-1.824 1.896 0 1.08.744 1.896 1.824 1.896zm6.176-.264V17.312h-2.976V29h2.976zm-1.488-16.56c-.984 0-1.656.696-1.656 1.608 0 .888.648 1.584 1.632 1.584 1.032 0 1.68-.696 1.68-1.584-.024-.912-.648-1.608-1.656-1.608zm8.96 4.608c-3.528 0-6.048 2.352-6.048 6.192 0 3.744 2.544 6.024 5.856 6.024 2.976 0 6-1.92 6-6.216 0-3.552-2.328-6-5.808-6zm-.072 2.16c2.016 0 2.832 2.088 2.832 3.912 0 2.352-1.176 4.008-2.856 4.008-1.8 0-2.904-1.704-2.904-3.96 0-1.944.84-3.96 2.928-3.96z" fill="#000"/></g></svg>