<svg width="25" height="25" xmlns="http://www.w3.org/2000/svg" viewBox="0 0 30 30" aria-hidden="true">
    <path fill="#0b3694" fill-rule="evenodd" clip-rule="evenodd" d="M9 20C11.419 20 13.4367 18.2822 13.9 16H16.1C16.5633 18.2822 18.581 20 21 20C23.7614 20 26 17.7614 26 15C26 12.2386 23.7614 10 21 10C18.581 10 16.5633 11.7178 16.1 14H13.9C13.4367 11.7178 11.419 10 9 10C6.23858 10 4 12.2386 4 15C4 17.7614 6.23858 20 9 20ZM17 15C17 17.2091 18.7909 19 21 19C23.2091 19 25 17.2091 25 15C25 12.7909 23.2091 11 21 11C18.7909 11 17 12.7909 17 15Z">
    </path>
</svg>

