<svg version="1.2" baseProfile="tiny-ps" xmlns="http://www.w3.org/2000/svg" viewBox="0 0 200 200" width="1000" height="1000">
	<title>something-001</title>
	<style>
		tspan { white-space:pre }
		.shp0 { fill: #290092 } 
	</style>
	<path id="Shape" fill-rule="evenodd" class="shp0" d="M99.98 9.7C118.5 9.7 133.57 24.77 133.57 43.3C133.57 51.69 130.47 59.38 125.37 65.28L138.68 72.9L138.81 72.96L163.87 85.5C164.48 85.78 164.92 86.34 165.05 87.01L175.54 145.81C175.66 146.43 175.5 147.07 175.09 147.55C174.68 148.04 174.08 148.31 173.45 148.3L146.55 148.3L145.18 160.9L154.56 160.9C155.4 160.88 156.18 161.37 156.52 162.15L167.02 187.35C167.31 188 167.25 188.77 166.85 189.36C166.45 189.96 165.77 190.32 165.05 190.3L100.18 190.3C100.11 190.3 100.05 190.3 99.98 190.3L34.91 190.3C34.19 190.32 33.52 189.96 33.12 189.36C32.72 188.77 32.65 188 32.95 187.35L43.44 162.15C43.72 161.49 44.31 161.02 45.02 160.9C45.15 160.89 45.28 160.89 45.41 160.9L54.85 160.9L53.48 148.3L26.52 148.3C25.89 148.31 25.28 148.04 24.88 147.55C24.47 147.07 24.3 146.43 24.42 145.81L34.91 87.01C35.04 86.34 35.48 85.78 36.09 85.5L61.15 72.96L61.28 72.9L74.6 65.28C69.49 59.38 66.33 51.69 66.33 43.3C66.33 24.77 81.46 9.7 99.98 9.7L99.98 9.7ZM70.6 43.3C70.6 59.56 83.73 72.7 99.98 72.7C116.24 72.7 129.37 59.56 129.37 43.3C129.37 27.04 116.24 13.9 99.98 13.9C83.73 13.9 70.6 27.04 70.6 43.3ZM77.61 68.37C77.61 68.37 77.61 68.37 77.61 68.37C77.61 68.37 77.61 68.37 77.61 68.37ZM77.61 68.37L63.25 76.57C63.21 76.6 63.16 76.62 63.12 76.64L38.92 88.71L29.08 144.1L53.02 144.1L49.61 112.8C49.49 111.7 50.23 110.7 51.31 110.5C51.44 110.49 51.57 110.49 51.71 110.5L148.26 110.5C148.85 110.5 149.42 110.75 149.82 111.18C150.22 111.62 150.41 112.21 150.36 112.8L147.01 144.1L170.89 144.1L161.05 88.71L136.85 76.64C136.8 76.62 136.76 76.6 136.71 76.57L122.35 68.37C116.4 73.68 108.56 76.97 99.98 76.97C91.41 76.97 83.56 73.68 77.61 68.37ZM54.07 114.7L60.5 173.5L139.53 173.5L145.9 114.7L54.07 114.7ZM46.85 165.1L38.06 186.1L99.98 186.1C100.03 186.1 100.07 186.1 100.11 186.1L161.9 186.1L153.11 165.1L144.72 165.1L143.54 175.8C143.43 176.88 142.52 177.7 141.44 177.7L58.59 177.7C57.51 177.7 56.6 176.88 56.49 175.8L55.31 165.1L46.85 165.1Z" />
</svg>