<svg version="1.2" baseProfile="tiny-ps" xmlns="http://www.w3.org/2000/svg" viewBox="0 0 200 200" width="200" height="200">
	<title>something-002-svg</title>
	<style>
		tspan { white-space:pre }
		.shp0 { fill: #290092 } 
		.shp1 { fill: #0b3694 } 
	</style>
	<g id="Layer">
		<g id="Layer">
			<path id="Layer" class="shp0" d="M84.49 163.86C83.03 163.86 81.85 162.67 81.85 161.21C81.85 159.76 83.03 158.57 84.49 158.57L115.22 158.57C116.68 158.57 117.86 159.76 117.86 161.21C117.86 162.67 116.68 163.86 115.22 163.86L84.49 163.86Z" />
			<path id="Layer" class="shp1" d="M87.9 174.34C86.45 174.34 85.26 173.16 85.26 171.7C85.26 170.24 86.45 169.06 87.9 169.06L111.81 169.06C113.26 169.06 114.45 170.24 114.45 171.7C114.45 173.16 113.26 174.34 111.81 174.34L87.9 174.34Z" />
			<path id="Layer" class="shp1" d="M102.5 28.56C102.5 30.01 101.31 31.2 99.85 31.2C98.4 31.2 97.21 30.01 97.21 28.56L97.21 18.31C97.21 16.86 98.4 15.67 99.85 15.67C101.31 15.67 102.5 16.86 102.5 18.31L102.5 28.56Z" />
			<path id="Layer" class="shp0" d="M91.32 184.83C89.87 184.83 88.68 183.65 88.68 182.19C88.68 180.73 89.87 179.54 91.32 179.54L108.39 179.54C109.85 179.54 111.03 180.73 111.03 182.19C111.03 183.65 109.85 184.83 108.39 184.83L91.32 184.83Z" />
			<path id="Layer" class="shp1" d="M132.29 37.94C131.57 39.2 129.95 39.64 128.69 38.92C127.44 38.19 127 36.58 127.72 35.32L132.84 26.45C133.56 25.19 135.18 24.76 136.43 25.48C137.69 26.2 138.13 27.81 137.4 29.07L132.29 37.94Z" />
			<path id="Layer" class="shp1" d="M71.99 35.32C72.71 36.58 72.28 38.19 71.02 38.92C69.76 39.64 68.15 39.2 67.43 37.94L62.3 29.07C61.58 27.81 62.02 26.2 63.27 25.48C64.53 24.76 66.15 25.19 66.87 26.45L71.99 35.32Z" />
			<path id="Layer" class="shp1" d="M48.95 56.42C50.21 57.14 50.65 58.76 49.93 60.01C49.2 61.27 47.59 61.71 46.33 60.99L37.46 55.86C36.2 55.14 35.76 53.53 36.49 52.27C37.21 51.01 38.82 50.58 40.08 51.3L48.95 56.42Z" />
			<path id="Layer" class="shp1" d="M153.38 60.99C152.12 61.71 150.51 61.27 149.79 60.01C149.07 58.76 149.5 57.14 150.76 56.42L159.63 51.3C160.89 50.58 162.5 51.01 163.22 52.27C163.95 53.53 163.51 55.14 162.25 55.86L153.38 60.99Z" />
			<path id="Layer" class="shp1" d="M72.39 100.46C72.95 101.8 72.33 103.34 70.99 103.9C69.65 104.47 68.1 103.84 67.54 102.49C66.65 100.37 65.95 98.13 65.48 95.81C65.03 93.53 64.78 91.19 64.78 88.85C64.78 87.39 65.96 86.21 67.42 86.21C68.88 86.21 70.06 87.39 70.06 88.85C70.06 90.91 70.27 92.9 70.65 94.79C71.04 96.75 71.64 98.65 72.39 100.46ZM72.39 77.24C71.83 78.58 70.29 79.21 68.95 78.65C67.61 78.08 66.98 76.54 67.54 75.2C68.43 73.1 69.51 71.11 70.76 69.27L70.76 69.26C72.03 67.37 73.47 65.62 75.05 64.04C76.62 62.48 78.37 61.04 80.27 59.75L80.27 59.75C82.1 58.52 84.09 57.43 86.21 56.54C88.33 55.64 90.57 54.94 92.88 54.48C95.17 54.01 97.51 53.77 99.85 53.77C101.31 53.77 102.5 54.96 102.5 56.42C102.5 57.87 101.31 59.06 99.85 59.06C97.78 59.06 95.8 59.26 93.91 59.64C91.95 60.03 90.05 60.63 88.25 61.39C86.51 62.13 84.82 63.05 83.22 64.12L83.21 64.12C81.65 65.18 80.16 66.41 78.79 67.78C77.43 69.15 76.2 70.63 75.14 72.21L75.13 72.21C74.06 73.8 73.14 75.49 72.39 77.24L72.39 77.24Z" />
			<path id="Layer" fill-rule="evenodd" class="shp1" d="M146.89 90.01C146.89 95.08 146.07 99.99 144.57 104.59C143.03 109.34 140.73 113.77 137.84 117.73C132.99 124.37 129.05 128.72 125.99 132.11C120.49 138.19 118.08 140.86 118.08 149.76C118.08 151.22 116.9 152.4 115.44 152.4L84.49 152.4C83.03 152.4 81.85 151.22 81.85 149.76C81.85 140.94 79.39 138.25 73.92 132.27L73.92 132.26L73.91 132.27C70.82 128.89 66.85 124.53 61.88 117.73C58.98 113.77 56.69 109.33 55.14 104.59C53.64 99.99 52.83 95.08 52.83 90.01C52.83 83.66 54.1 77.58 56.4 72.03L56.45 71.92C58.84 66.19 62.32 61.04 66.61 56.75C70.92 52.43 76.1 48.94 81.87 46.55C87.43 44.25 93.51 42.98 99.85 42.98C106.2 42.98 112.28 44.25 117.83 46.55C123.6 48.94 128.79 52.43 133.11 56.75C141.62 65.26 146.89 77.02 146.89 90.01ZM129.37 60.5C125.51 56.63 120.91 53.52 115.82 51.42C110.92 49.39 105.53 48.27 99.85 48.27C94.19 48.27 88.8 49.39 83.9 51.42L83.89 51.42C78.8 53.52 74.2 56.63 70.34 60.5C66.52 64.32 63.43 68.88 61.32 73.91L61.27 74.05C59.24 78.95 58.11 84.34 58.11 90.01C58.11 94.54 58.84 98.89 60.16 102.96C61.53 107.18 63.57 111.11 66.13 114.61C70.9 121.15 74.79 125.4 77.82 128.71L77.81 128.72C83.69 135.14 86.61 138.36 87.07 147.11L112.86 147.11C113.31 138.3 116.18 135.12 122.09 128.58C125.04 125.31 128.84 121.11 133.59 114.61C136.14 111.11 138.17 107.18 139.55 102.96C140.87 98.9 141.59 94.54 141.59 90.01C141.59 78.48 136.92 68.05 129.37 60.5Z" />
		</g>
		<g id="Layer">
			<path id="Layer" class="shp1" d="M107.61 137.8C107.61 139.26 106.43 140.43 104.98 140.43C103.52 140.43 102.34 139.26 102.34 137.8C102.35 126.28 102.69 117.67 104.29 109.63C105.91 101.5 108.81 93.98 113.94 84.74C114.65 83.46 116.25 83.01 117.53 83.71C118.79 84.42 119.25 86.02 118.54 87.3C113.71 95.99 110.99 103.05 109.47 110.66C107.94 118.36 107.62 126.67 107.61 137.8Z" />
			<path id="Layer" class="shp1" d="M82.66 88.52C81.28 88.08 80.52 86.6 80.96 85.21C81.4 83.82 82.89 83.06 84.28 83.5C86.12 84.1 87.71 84.9 89.18 85.64L89.32 85.72C91.62 86.87 93.53 87.78 94.95 86.62L98.2 83.97C99.32 83.06 100.99 83.23 101.9 84.36C102.82 85.48 102.65 87.14 101.52 88.06L98.27 90.71C94.22 94 90.91 92.4 86.92 90.4L86.8 90.35C85.51 89.7 84.11 88.99 82.66 88.52Z" />
			<path id="Layer" class="shp1" d="M97.37 137.8C97.37 139.26 96.19 140.43 94.74 140.43C93.28 140.43 92.11 139.26 92.11 137.8C92.1 126.67 91.78 118.36 90.24 110.66C88.72 103.05 85.99 95.99 81.16 87.3C80.46 86.02 80.92 84.42 82.19 83.71C83.46 83.01 85.06 83.46 85.77 84.74C90.9 93.98 93.8 101.5 95.42 109.63C97.02 117.66 97.35 126.28 97.37 137.8Z" />
			<path id="Layer" class="shp1" d="M115.44 83.5C116.83 83.06 118.31 83.82 118.75 85.21C119.19 86.6 118.43 88.08 117.05 88.52C115.6 88.99 114.2 89.7 112.91 90.35L112.79 90.4C108.8 92.4 105.49 94 101.45 90.71L98.2 88.06C97.07 87.14 96.9 85.48 97.81 84.36C98.73 83.23 100.39 83.06 101.52 83.97L104.77 86.62C106.19 87.78 108.09 86.87 110.39 85.72L110.54 85.64C112.01 84.9 113.6 84.1 115.44 83.5Z" />
		</g>
	</g>
</svg>