<svg version="1.2" baseProfile="tiny-ps" xmlns="http://www.w3.org/2000/svg" viewBox="0 0 200 200" width="1000" height="1000">
	<title>something-003</title>
	<style>
		tspan { white-space:pre }
		.shp0 { fill: #290092 } 
	</style>
	<path id="Shape" fill-rule="evenodd" class="shp0" d="M125.75 49.43C126.25 49.83 126.53 50.44 126.52 51.08C143.27 51.08 158.5 56.18 169.6 64.59C180.71 73 187.71 84.83 187.71 97.96C187.71 115.47 175.6 129.67 157.49 137.64C159.5 145.39 160.66 153.22 168.78 161.72C169.59 162.4 169.75 163.59 169.13 164.46C168.51 165.33 167.33 165.58 166.42 165.03C153.85 159.17 146.21 157.43 135.89 144.84L126.52 144.84C109.76 144.84 94.53 139.68 83.43 131.27C82.26 130.39 81.12 129.49 80.05 128.53C79.9 128.55 79.75 128.55 79.6 128.53L66.09 128.53C55.03 141.18 46.99 142.84 33.52 148.72C32.62 149.09 31.59 148.78 31.05 147.97C30.51 147.17 30.61 146.1 31.29 145.41C40.03 136.85 42.25 128.96 44.48 121.34C25.19 113.39 12.29 99.21 12.29 81.66C12.29 68.48 19.83 56.61 31.67 48.22C43.51 39.83 59.71 34.78 77.56 34.78C96.45 34.78 113.74 40.11 125.75 49.43ZM34.03 51.59C22.99 59.42 16.37 70.03 16.37 81.66C16.37 97.77 28.32 111.09 47.67 118.47C48.68 118.83 49.24 119.92 48.94 120.95C47.14 127.04 45.22 134.09 39.96 141.46C48.59 137.96 55.41 135.02 63.8 125.16C64.18 124.71 64.74 124.46 65.33 124.46L75.97 124.46C69.74 117.48 65.89 109.1 65.39 100C65.37 100 65.35 100 65.33 100L40.85 100C39.73 100.1 38.74 99.27 38.63 98.15C38.53 97.03 39.35 96.04 40.47 95.92C40.59 95.91 40.72 95.91 40.85 95.92L65.33 95.92C65.35 95.92 65.37 95.92 65.39 95.92C65.63 91.67 66.59 87.57 68.19 83.69L40.85 83.69C39.72 83.8 38.72 82.97 38.62 81.85C38.51 80.72 39.34 79.72 40.47 79.62C40.59 79.61 40.72 79.61 40.85 79.62L69.4 79.62C69.67 79.61 69.93 79.65 70.17 79.75C72.65 75.22 75.98 71.03 80.05 67.39L40.85 67.39C40.12 67.46 39.41 67.13 38.99 66.54C38.56 65.94 38.49 65.16 38.8 64.5C39.1 63.83 39.74 63.38 40.47 63.31C40.59 63.3 40.72 63.3 40.85 63.31L85.28 63.31C94.99 56.55 107.54 52.27 121.35 51.4C110.31 43.59 94.71 38.86 77.56 38.86C60.49 38.86 45.07 43.77 34.03 51.59ZM85.91 67.84C75.61 75.64 69.4 86.28 69.4 97.96C69.4 109.64 75.61 120.22 85.91 128.02C96.22 135.83 110.59 140.76 126.52 140.76L136.71 140.76C137.33 140.76 137.92 141.04 138.31 141.53C146.17 151.41 152.55 154.38 160.68 157.89C155.92 150.39 154.76 143.21 153.1 137.19C152.83 136.2 153.35 135.16 154.31 134.77C172.35 127.42 183.63 114.13 183.63 97.96C183.63 86.28 177.42 75.64 167.12 67.84C156.81 60.03 142.44 55.16 126.52 55.16C110.59 55.16 96.22 60.03 85.91 67.84ZM104.08 95.92C104.08 101.53 99.49 106.11 93.88 106.11C88.27 106.11 83.68 101.53 83.68 95.92C83.68 90.32 88.27 85.73 93.88 85.73C99.49 85.73 104.08 90.32 104.08 95.92ZM136.71 95.92C136.71 101.53 132.12 106.11 126.52 106.11C120.91 106.11 116.32 101.53 116.32 95.92C116.32 90.32 120.91 85.73 126.52 85.73C132.12 85.73 136.71 90.32 136.71 95.92ZM169.35 95.92C169.35 101.53 164.76 106.11 159.15 106.11C153.54 106.11 148.95 101.53 148.95 95.92C148.95 90.32 153.54 85.73 159.15 85.73C164.76 85.73 169.35 90.32 169.35 95.92ZM87.76 95.92C87.76 99.32 90.48 102.04 93.88 102.04C97.28 102.04 100 99.32 100 95.92C100 92.52 97.28 89.81 93.88 89.81C90.48 89.81 87.76 92.52 87.76 95.92ZM120.4 95.92C120.4 99.32 123.11 102.04 126.52 102.04C129.92 102.04 132.64 99.32 132.64 95.92C132.64 92.52 129.92 89.81 126.52 89.81C123.11 89.81 120.4 92.52 120.4 95.92ZM153.03 95.92C153.03 99.32 155.75 102.04 159.15 102.04C162.55 102.04 165.27 99.32 165.27 95.92C165.27 92.52 162.55 89.81 159.15 89.81C155.75 89.81 153.03 92.52 153.03 95.92Z" />
</svg>