<svg width="21" height="21" xmlns="http://www.w3.org/2000/svg" focusable="false" viewBox="-2 -2 34 34" aria-hidden="true">
  <g>
    <g>
      <path d="M8 -0.143L8 14.429 7 14.429 7 -0.143z" transform="translate(7.857 7.857)" />
      <path d="M8 -0.5L8 14.786 7 14.786 7 -0.5z" transform="translate(7.857 7.857) rotate(-90 7.5 7.143)" />
    </g>
    <path d="M15-.5C6.44-.5-.5 6.44-.5 15c0 8.56 6.94 15.5 15.5 15.5 8.56 0 15.5-6.94 15.5-15.5C30.5 6.44 23.56-.5 15-.5zm0 1C23.008.5 29.5 6.992 29.5 15S23.008 29.5 15 29.5.5 23.008.5 15 6.992.5 15 .5z" />
  </g>
</svg>