<svg xmlns="http://www.w3.org/2000/svg" viewBox="0 0 30 30" width="30" height="30">
  <path fill="currentColor" 
        fill-rule="evenodd" 
        clip-rule="evenodd" 
        d="M13.0731 8.53191L17.349 6.09819C17.5696 5.97263 17.8387 5.96717 18.0642 6.08366L22.3193 8.28185C22.6004 8.42704 22.7601 8.73297 22.7186 9.04658L22.3929 11.5078C22.3621 11.7403 22.2244 11.9449 22.0207 12.061L11.1215 18.2724C10.763 18.4767 10.3069 18.3531 10.1006 17.9958L7.10061 12.7996C6.8926 12.4393 7.01758 11.9786 7.37913 11.7728L11.7686 9.27441L11.2878 8.49818L11.2401 8.40806C11.0895 8.07069 11.2077 7.66559 11.5305 7.46566C11.8827 7.24756 12.345 7.35621 12.5631 7.70835L13.0731 8.53191ZM8.77658 12.7037L11.0261 16.6L20.9541 10.9419L21.161 9.37215L17.7368 7.60326L8.77658 12.7037ZM17.0631 16.8078C16.7415 17.0098 16.6259 17.4156 16.7785 17.752L16.8269 17.8419L20.9064 24.3371C21.1267 24.6879 21.5896 24.7936 21.9404 24.5733C22.2619 24.3714 22.3776 23.9655 22.2249 23.6291L22.1766 23.5393L18.0971 17.0441C17.8768 16.6933 17.4138 16.5875 17.0631 16.8078Z"/>
</svg>