<svg width="25" height="25" xmlns="http://www.w3.org/2000/svg" viewBox="0 0 40 40" aria-hidden="true">
<path fill="#0B3694" fill-rule="evenodd" d="M30 11.25H12c-.966 0-1.75.784-1.75 1.75v17.329c0 .414.336.75.75.75h1.19l.122-.01c.16-.027.308-.104.421-.223l3.238-3.392L30 27.456c.966 0 1.75-.784 1.75-1.75V13c0-.966-.784-1.75-1.75-1.75zm-18 1.5h18c.138 0 .25.112.25.25v12.706c0 .138-.112.25-.25.25l-14.35-.001-.121.01c-.16.026-.308.104-.421.222l-3.239 3.391h-.12L11.75 13c0-.138.112-.25.25-.25z">
</path>
</svg>