<svg width="26" height="25" xmlns="http://www.w3.org/2000/svg" class="MuiSvgIcon-root" focusable="false" viewBox="0 0 26 25" aria-hidden="true" fill="none">
    <path fill-rule="evenodd" clip-rule="evenodd" d="M19 5H5C3.89543 5 3 5.89543 3 7V17C3 18.1046 3.89543 19 5 19H10L12 21L14 19H19C20.1046 19 21 18.1046 21 17V7C21 5.89543 20.1046 5 19 5ZM7 14C7 13.4477 7.44772 13 8 13H16C16.5523 13 17 13.4477 17 14C17 14.5523 16.5523 15 16 15H8C7.44772 15 7 14.5523 7 14ZM8 9C7.44772 9 7 9.44772 7 10C7 10.5523 7.44772 11 8 11H16C16.5523 11 17 10.5523 17 10C17 9.44772 16.5523 9 16 9H8Z" fill="#252525"/>
    <circle cx="21" cy="5" r="4" fill="#ffff8d" stroke="white" stroke-width="2"/>
</svg> 