<?xml version="1.0" encoding="UTF-8"?>
<svg width="24" height="24" viewBox="0 0 24 24" fill="none" xmlns="http://www.w3.org/2000/svg">
<circle cx="12" cy="12" r="12" fill="#E53935"/>
<path d="M12 10.24c-1.28 0-2.52.2-3.68.576v2.48c0 .312-.184.592-.448.72-.784.392-1.496.896-2.128 1.48-.144.144-.344.224-.56.224-.224 0-.424-.088-.568-.232L2.632 13.504c-.144-.136-.232-.336-.232-.56 0-.224.088-.424.232-.568C4.672 10.264 8.168 8.84 12 8.84s7.328 1.424 9.368 3.736c.144.144.232.344.232.568 0 .224-.088.424-.232.568l-1.984 1.984c-.144.144-.344.232-.568.232-.216 0-.416-.088-.56-.224-.632-.592-1.352-1.088-2.136-1.48-.264-.128-.448-.4-.448-.72v-2.48c-1.16-.376-2.4-.576-3.672-.576z" fill="white"/>
</svg> 