<svg xmlns="http://www.w3.org/2000/svg" 
     viewBox="0 0 30 30" 
     width="30" 
     height="30"
     fill="none">
  <path fill="currentColor"
        fill-rule="evenodd" 
        clip-rule="evenodd" 
        d="M18.4994 6.7054C15.1535 5.29571 11.2489 6.02514 8.63723 8.63681C5.12234 12.1517 5.12185 17.8499 8.63612 21.3642C11.2051 23.9332 15.0284 24.6828 18.3447 23.3569C18.7434 23.1974 18.9375 22.745 18.7781 22.3462C18.6187 21.9475 18.1663 21.7535 17.7676 21.913C15.0239 23.0099 11.8611 22.3899 9.73581 20.2645C6.82876 17.3575 6.82917 12.6438 9.73672 9.7363C11.8973 7.57569 15.1274 6.97226 17.8954 8.13847C18.2911 8.30519 18.7471 8.11954 18.9139 7.7238C19.0806 7.32807 18.8951 6.87212 18.4994 6.7054ZM20.5797 8.96789L14.7736 14.7737C14.4699 15.0774 14.4699 15.5697 14.7735 15.8734L20.2647 21.3638C20.5717 21.6707 21.0706 21.6668 21.3728 21.355L21.5554 21.1666C24.7588 17.7561 24.8174 12.4676 21.7085 8.99867C21.4108 8.66649 20.8952 8.65243 20.5797 8.96789ZM21.0659 10.68L21.1616 10.8171C22.955 13.4514 22.8674 16.9771 20.9142 19.5238L20.7858 19.6842L16.4231 15.3229L21.0659 10.68Z"/>
</svg>