<svg xmlns="http://www.w3.org/2000/svg" 
     viewBox="0 0 30 30" 
     width="30" 
     height="30"
     fill="none">
  <path fill="currentColor"
        fill-rule="evenodd" 
        clip-rule="evenodd" 
        d="M16.3821 6H13.1225C12.7406 6 12.4257 6.28533 12.3786 6.65379L12.3725 6.75619C12.3758 7.15437 12.2704 7.54603 12.0585 7.89999C11.3983 9.00315 9.91138 9.38343 8.74401 8.73511C8.39014 8.53858 7.94417 8.65831 7.73631 9.00565L6.10658 11.729C5.9064 12.0635 5.99761 12.489 6.30138 12.7152L6.38944 12.7717C6.75506 12.9722 7.05789 13.2602 7.27089 13.6161C7.92028 14.7013 7.53148 16.0929 6.38558 16.7369C6.0175 16.9437 5.89265 17.4135 6.10947 17.7758L7.73923 20.4991C7.94787 20.8478 8.39618 20.9669 8.75034 20.7678C9.11423 20.5632 9.52799 20.4538 9.96031 20.4538C11.2879 20.4538 12.357 21.487 12.3637 22.754C12.3659 23.1667 12.7011 23.5 13.1137 23.5H16.3733C16.7883 23.5 17.1244 23.163 17.1233 22.748C17.1222 22.354 17.2277 21.9666 17.4374 21.6161C18.0963 20.515 19.5795 20.1339 20.7463 20.778C21.1 20.9733 21.5448 20.8532 21.7523 20.5065L23.3821 17.7833C23.6001 17.419 23.4726 16.9466 23.1009 16.7415C22.7379 16.5411 22.437 16.2542 22.2251 15.9C21.5745 14.8129 21.9659 13.4185 23.1159 12.7761C23.4852 12.5698 23.6109 12.0991 23.3937 11.7362L21.7639 9.01286C21.5549 8.66359 21.1055 8.5448 20.7512 8.74517C20.3858 8.95179 19.9701 9.06234 19.5356 9.06234C18.2588 9.06234 17.2218 8.10698 17.1376 6.90775L17.1321 6.75C17.1321 6.33579 16.7963 6 16.3821 6ZM13.8001 7.5H15.7091L15.7116 7.51977C16.0764 9.25939 17.6535 10.5623 19.5356 10.5623L19.7948 10.554C20.1386 10.5319 20.4744 10.466 20.7954 10.3592L20.8171 10.351L21.7491 11.908L21.7185 11.9335C20.3633 13.1109 19.9891 15.0847 20.938 16.6703L21.0759 16.8842C21.2205 17.0927 21.3847 17.2849 21.566 17.4591L21.7361 17.612L20.8031 19.172L20.7015 19.1389C18.9935 18.6179 17.0845 19.2846 16.1503 20.8458L16.0269 21.0686C15.9117 21.2943 15.8208 21.5289 15.7547 21.769L15.6991 22H13.7851L13.7807 21.9795C13.4091 20.2478 11.8357 18.9538 9.96031 18.9538L9.70241 18.962C9.44586 18.9784 9.19371 19.0192 8.94885 19.0832L8.68814 19.161L7.75414 17.601L7.78389 17.5769C9.13404 16.3987 9.50519 14.4286 8.55799 12.8458L8.41934 12.6309C8.27396 12.4214 8.10871 12.2283 7.92625 12.0536L7.75314 11.899L8.68614 10.34L8.78613 10.3747C10.496 10.9004 12.4096 10.2343 13.3456 8.67032L13.4701 8.44528C13.5864 8.21715 13.6778 7.9801 13.7439 7.73736L13.8001 7.5ZM14.608 11C12.5369 11 10.858 12.6789 10.858 14.75C10.858 16.8211 12.5369 18.5 14.608 18.5C16.6791 18.5 18.358 16.8211 18.358 14.75C18.358 12.6789 16.6791 11 14.608 11ZM14.608 12.5C15.8506 12.5 16.858 13.5074 16.858 14.75C16.858 15.9926 15.8506 17 14.608 17C13.3654 17 12.358 15.9926 12.358 14.75C12.358 13.5074 13.3654 12.5 14.608 12.5Z"/>
</svg>