<?xml version="1.0" encoding="UTF-8"?>
<svg width="20" height="20" viewBox="0 0 41 29" fill="none" xmlns="http://www.w3.org/2000/svg">
  <path d="M11.7053 0H5.85156V5.79928H11.7053V0Z" fill="black"/>
  <path d="M35.1272 0H29.2734V5.79928H35.1272V0Z" fill="black"/>
  <path d="M17.559 5.79883H5.85156V11.5981H17.559V5.79883Z" fill="black"/>
  <path d="M35.1293 5.79883H23.4219V11.5981H35.1293V5.79883Z" fill="black"/>
  <path d="M35.1239 11.5977H5.85156V17.3969H35.1239V11.5977Z" fill="black"/>
  <path d="M11.7053 17.3984H5.85156V23.1977H11.7053V17.3984Z" fill="black"/>
  <path d="M23.4162 17.3984H17.5625V23.1977H23.4162V17.3984Z" fill="black"/>
  <path d="M35.1272 17.3984H29.2734V23.1977H35.1272V17.3984Z" fill="black"/>
  <path d="M17.5648 23.2012H0V29.0005H17.5648V23.2012Z" fill="black"/>
  <path d="M40.9867 23.2012H23.4219V29.0005H40.9867V23.2012Z" fill="black"/>
  <path d="M11.7072 0H5.85352V5.79928H11.7072V0Z" fill="#FFD800"/>
  <path d="M35.1252 0H29.2715V5.79928H35.1252V0Z" fill="#FFD800"/>
  <path d="M17.561 5.79883H5.85352V11.5981H17.561V5.79883Z" fill="#FFAF00"/>
  <path d="M35.1254 5.79883H23.418V11.5981H35.1254V5.79883Z" fill="#FFAF00"/>
  <path d="M35.1258 11.5977H5.85352V17.3969H35.1258V11.5977Z" fill="#FF8205"/>
  <path d="M11.7072 17.3984H5.85352V23.1977H11.7072V17.3984Z" fill="#FA500F"/>
  <path d="M23.4162 17.3984H17.5625V23.1977H23.4162V17.3984Z" fill="#FA500F"/>
  <path d="M35.1252 17.3984H29.2715V23.1977H35.1252V17.3984Z" fill="#FA500F"/>
  <path d="M17.5648 23.2012H0V29.0005H17.5648V23.2012Z" fill="#E10500"/>
  <path d="M40.9828 23.2012H23.418V29.0005H40.9828V23.2012Z" fill="#E10500"/>
</svg> 