<svg width="20" height="22" viewBox="-2 -0.5 20 22" fill="none" xmlns="http://www.w3.org/2000/svg">
<path fill-rule="evenodd" clip-rule="evenodd" d="M8 2.5C6.4686 2.5 5 3.63241 5 5.5V7.5H11V5.5C11 3.63241 9.5314 2.5 8 2.5ZM13 7.5V5.5C13 2.36759 10.4686 0.5 8 0.5C5.5314 0.5 3 2.36759 3 5.5V7.5H2C0.895431 7.5 0 8.39543 0 9.5V19.5C0 20.6046 0.895431 21.5 2 21.5H14C15.1046 21.5 16 20.6046 16 19.5V9.5C16 8.39543 15.1046 7.5 14 7.5H13ZM2 9.5V19.5H14V9.5H2ZM8 13.5C7.44772 13.5 7 13.9477 7 14.5C7 15.0523 7.44772 15.5 8 15.5C8.55228 15.5 9 15.0523 9 14.5C9 13.9477 8.55228 13.5 8 13.5ZM5 14.5C5 12.8431 6.34315 11.5 8 11.5C9.65685 11.5 11 12.8431 11 14.5C11 16.1569 9.65685 17.5 8 17.5C6.34315 17.5 5 16.1569 5 14.5Z" fill="#CC0000"/>
</svg> 