<?xml version="1.0" encoding="UTF-8"?>
<svg width="30" height="30" viewBox="0 0 30 30" fill="none" xmlns="http://www.w3.org/2000/svg">
<path fill-rule="evenodd" clip-rule="evenodd" d="M5.75 9H8.75C10.8211 9 12.5 10.6789 12.5 12.75C12.5 14.8211 10.8211 16.5 8.75 16.5H6.5V20.75C6.5 21.1642 6.16421 21.5 5.75 21.5C5.3703 21.5 5.05651 21.2178 5.00685 20.8518L5 20.75V15.75V15.6947V9.75C5 9.33579 5.33579 9 5.75 9ZM6.5 10.5V15H8.75C9.99264 15 11 13.9926 11 12.75C11 11.5074 9.99264 10.5 8.75 10.5H6.5ZM24.4079 10.25C24.4079 9.83579 24.0721 9.5 23.6579 9.5H15.5579L15.4561 9.50685C15.09 9.55651 14.8079 9.8703 14.8079 10.25C14.8079 10.6642 15.1437 11 15.5579 11H23.6579L23.7596 10.9932C24.1257 10.9435 24.4079 10.6297 24.4079 10.25ZM24.4079 20.75C24.4079 20.3358 24.0721 20 23.6579 20H15.5579L15.4561 20.0068C15.09 20.0565 14.8079 20.3703 14.8079 20.75C14.8079 21.1642 15.1437 21.5 15.5579 21.5H23.6579L23.7596 21.4932C24.1257 21.4435 24.4079 21.1297 24.4079 20.75ZM23.6579 13C24.0721 13 24.4079 13.3358 24.4079 13.75C24.4079 14.1297 24.1257 14.4435 23.7596 14.4932L23.6579 14.5H15.5579C15.1437 14.5 14.8079 14.1642 14.8079 13.75C14.8079 13.3703 15.09 13.0565 15.4561 13.0068L15.5579 13H23.6579ZM24.4079 17.25C24.4079 16.8358 24.0721 16.5 23.6579 16.5H15.5579L15.4561 16.5068C15.09 16.5565 14.8079 16.8703 14.8079 17.25C14.8079 17.6642 15.1437 18 15.5579 18H23.6579L23.7596 17.9932C24.1257 17.9435 24.4079 17.6297 24.4079 17.25Z" fill="#808080"/>
</svg> 