<svg width="20" height="20" viewBox="-3 -4 20 20" fill="none" xmlns="http://www.w3.org/2000/svg">
<path fill-rule="evenodd" clip-rule="evenodd" d="M4.82018 0.347874C6.1199 -0.115094 7.53946 -0.115981 8.83976 0.34536C10.1401 0.806702 11.2416 1.70208 11.9589 2.88068C12.4863 3.74727 12.7823 4.72804 12.8274 5.72993L14.0288 4.5286L14.9716 5.4714L12.1668 8.27614L9.3621 5.47141L10.3049 4.5286L11.4915 5.71516C11.4454 4.96195 11.217 4.2263 10.8199 3.57386C10.262 2.65717 9.40526 1.96077 8.39392 1.60195C7.38258 1.24313 6.27848 1.24382 5.26759 1.6039C4.2567 1.96399 3.40079 2.66147 2.84404 3.57885C2.2873 4.49623 2.06373 5.57747 2.21099 6.64042C2.35826 7.70338 2.86736 8.6831 3.65255 9.41457C4.43774 10.146 5.45103 10.5845 6.52174 10.6562C7.59245 10.7279 8.65515 10.4284 9.53085 9.80816L10.3015 10.8962C9.17563 11.6937 7.80929 12.0788 6.43266 11.9866C5.05603 11.8944 3.75323 11.3306 2.74371 10.3902C1.73418 9.44971 1.07962 8.19006 0.890275 6.8234C0.700932 5.45674 0.98838 4.06659 1.7042 2.88709C2.42002 1.7076 3.52047 0.810841 4.82018 0.347874Z" fill="#0B3694"/>
</svg> 