<svg class="MuiSvgIcon-root" focusable="false" width="30" height="30" xmlns="http://www.w3.org/2000/svg" viewBox="0 0 30 30" aria-hidden="true">
    <path fill="#37546d" d="M13 10c-4.28 0-7.75 3.47-7.75 7.75 0 4.28 3.47 7.75 7.75 7.75 4.28 0 7.75-3.47 7.75-7.75 0-4.28-3.47-7.75-7.75-7.75zm0 1.5c3.452 0 6.25 2.798 6.25 6.25s-2.798 6.25-6.25 6.25-6.25-2.798-6.25-6.25 2.798-6.25 6.25-6.25z">
    </path>
    <path fill="#37546d" d="M17 22.91c.28-.251.697-.252.979-.019l.08.077 4.167 4.651c.276.309.25.783-.058 1.06-.28.25-.698.252-.98.018l-.08-.077-4.166-4.65c-.277-.31-.25-.783.058-1.06z">
    </path>
</svg>