<?xml version="1.0" encoding="UTF-8"?>
<svg width="24" height="24" viewBox="0 0 24 24" fill="none" xmlns="http://www.w3.org/2000/svg">
<circle cx="12" cy="12" r="12" fill="#31A058"/>
<path d="M18.01 14.535c-.922 0-1.815-.15-2.647-.42-.262-.09-.555-.022-.757.18l-1.178 1.478c-2.122-1.013-4.11-2.925-5.167-5.123l1.462-1.245c.203-.21.263-.502.18-.765-.277-.832-.42-1.725-.42-2.647 0-.405-.337-.743-.742-.743H6.142C5.737 5.25 5.25 5.43 5.25 5.993 5.25 12.96 11.047 18.75 18.007 18.75c.533 0 .743-.472.743-.885v-2.587c0-.405-.338-.743-.743-.743z" fill="white"/>
</svg>