<svg xmlns="http://www.w3.org/2000/svg" 
     viewBox="0 0 30 30" 
     width="30" 
     height="30"
     fill="none">
  <path fill="currentColor"
        fill-rule="evenodd" 
        clip-rule="evenodd" 
        d="M14.9482 5.0634L7.44819 8.36017C7.17584 8.47988 7 8.74926 7 9.04676V14.0468L7.00637 14.1461C7.06928 14.6313 7.58713 14.9376 8.05181 14.7334L15.25 11.569L22.4482 14.7334C22.9438 14.9512 23.5 14.5882 23.5 14.0468V9.04676C23.5 8.74926 23.3242 8.47988 23.0518 8.36017L15.5518 5.0634C15.3595 4.97887 15.1405 4.97887 14.9482 5.0634ZM15.25 6.569L22 9.536V12.898L15.5518 10.0634L15.4336 10.0228C15.273 9.98225 15.1021 9.99577 14.9482 10.0634L8.5 12.898V9.536L15.25 6.569ZM14.9482 14.3602L7.44819 17.6569C7.17584 17.7766 7 18.046 7 18.3435V23.3435L7.00637 23.4429C7.06928 23.9281 7.58713 24.2344 8.05181 24.0301L15.25 20.866L22.4482 24.0301C22.9438 24.248 23.5 23.8849 23.5 23.3435V18.3435C23.5 18.046 23.3242 17.7766 23.0518 17.6569L15.5518 14.3602C15.3595 14.2756 15.1405 14.2756 14.9482 14.3602ZM15.25 15.866L22 18.833V22.194L15.5518 19.3602L15.4336 19.3196C15.273 19.279 15.1021 19.2925 14.9482 19.3602L8.5 22.194V18.833L15.25 15.866Z"/>
</svg>