<svg width="20" height="20" xmlns="http://www.w3.org/2000/svg" viewBox="0 0 30 30" aria-hidden="true" style="transform: rotate(-90deg);">
    <path fill="#8f96a3" fill-rule="evenodd" clip-rule="evenodd" d="M14.75 8C15.1642 8 15.5 8.33579 15.5 8.75C15.5 9.1297 15.2178 9.44349 14.8518 9.49315L14.75 9.5H8.5V20H14.75C15.1297 20 15.4435 20.2822 15.4932 20.6482L15.5 20.75C15.5 21.1297 15.2178 21.4435 14.8518 21.4932L14.75 21.5H7.75C7.3703 21.5 7.05651 21.2178 7.00685 20.8518L7 20.75V8.75C7 8.3703 7.28215 8.05651 7.64823 8.00685L7.75 8H14.75ZM18.5147 10.2531C18.7801 9.98598 19.1967 9.9604 19.491 10.1773L19.5753 10.2496L23.5753 14.2235C23.8425 14.4888 23.8681 14.9054 23.6512 15.1998L23.5788 15.2841L19.5788 19.3103C19.2869 19.6041 18.812 19.6057 18.5182 19.3138C18.251 19.0484 18.2255 18.6318 18.4424 18.3375L18.5147 18.2531L21.2498 15.5H13.3866C12.9724 15.5 12.6366 15.1642 12.6366 14.75C12.6366 14.3703 12.9188 14.0565 13.2848 14.0068L13.3866 14H21.2236L18.5182 11.3138C18.251 11.0484 18.2255 10.6318 18.4424 10.3375L18.5147 10.2531Z">
    </path>
</svg>