<?xml version="1.0" encoding="utf-8"?>
<!-- Generator: Adobe Illustrator 21.1.0, SVG Export Plug-In . SVG Version: 6.00 Build 0)  -->
<svg id="COGNIGY.AI" 
    xmlns="http://www.w3.org/2000/svg" viewBox="100 0 1125.34 157.22">
    <defs>
        <style>.cls-1{fill:#000}</style>
    </defs>
    <path class="cls-1" d="M253.88 386.75v23.52H176c-26.05 0-39-12.91-39-39v-39.16c0-26.05 12.91-39 39-39h77.92v23.52H179c-12.45 0-18.91 6.22-18.91 18.67v32.51c0 12.45 6.23 18.9 18.91 18.9z" transform="translate(-12.66 -273.78)"/>
    <path class="cls-1" d="M351.63 386.75c12.92 0 19.6-6.45 19.6-19.6V336c0-12.91-6.45-19.6-19.6-19.6h-35.27c-10.6 0-15.44 6.46-15.44 19.6v31.35c0 12.92 6.45 19.6 19.59 19.6l31.12-.23zm3.92 23.25h-39c-26 0-39-12.92-39-39v-39.12c0-26.05 12.91-39 39-39h39c26.06 0 39 12.91 39 39v39c-.03 26.01-13.18 39.12-39 39.12z" transform="translate(-12.66 -273.78)"/>
    <path class="cls-1" d="M535.15 347.56V410h-77.93c-26.05 0-39-12.92-39-39v-39.12c0-26.05 12.91-39 39-39h77.93v23.51h-74.93c-12.45 0-18.9 6.23-18.9 18.68v32.74c0 12.45 6.22 18.9 18.9 18.9h51.41v-39.15z" transform="translate(-12.66 -273.78)"/>
    <path class="cls-1" d="M582 328.42V410h-23.57V292.92h24l69.85 81.61v-81.61h23.52v117.35h-24L582 328.42z" transform="translate(-12.66 -273.78)"/>
    <path class="cls-1" d="M722.81 410h-23.52V292.92h23.52z" transform="translate(-12.66 -273.78)"/>
    <path class="cls-1" d="M863.44 347.56V410h-77.92c-26.06 0-39-12.92-39-39v-39.12c0-26.05 12.91-39 39-39h77.92v23.51h-74.93c-12.45 0-18.9 6.23-18.9 18.68v32.74c0 12.45 6.22 18.9 18.9 18.9h51.41v-39.15z" transform="translate(-12.66 -273.78)"/>
    <path class="cls-1" d="M1000 292.85h-23.52V318c0 12.68-6.22 18.9-18.9 18.9h-32.51c-12.45 0-18.67-6.22-18.67-18.9l-.23-25.13h-23.29V321c0 26 12.91 39 39 39h7.75v50h23.52v-50.07h7.69c26.05 0 39-12.91 39-39l.23-21.21v-6.91zM1007.69 410.66v-24h24v24zM1151.44 410.66l-39-89.68-38.88 89.68h-26.11l52-119.78h26l52 119.78zM1217.18 410.66h-24V290.88h24z" transform="translate(-12.66 -273.78)"/>
</svg>