<svg version="1.2" baseProfile="tiny-ps" xmlns="http://www.w3.org/2000/svg" viewBox="0 0 869 158" width="869" height="158">
	<title>CognigyAI-svg</title>
	<style>
		tspan { white-space:pre }
		.shp0 { fill: #ffffff } 
	</style>
	<path id="Layer" class="shp0" d="M120.22 112.97L120.22 136.49L42.34 136.49C16.29 136.49 3.34 123.58 3.34 97.49L3.34 58.33C3.34 32.28 16.25 19.33 42.34 19.33L120.26 19.33L120.26 42.85L45.34 42.85C32.89 42.85 26.43 49.07 26.43 61.52L26.43 94.03C26.43 106.48 32.66 112.93 45.34 112.93L120.22 112.97Z" />
	<path id="Layer" fill-rule="evenodd" class="shp0" d="M221.89 136.22L182.89 136.22C156.89 136.22 143.89 123.3 143.89 97.22L143.89 58.1C143.89 32.05 156.8 19.1 182.89 19.1L221.89 19.1C247.95 19.1 260.89 32.01 260.89 58.1L260.89 97.1C260.86 123.11 247.71 136.22 221.89 136.22ZM217.97 112.97C230.89 112.97 237.57 106.52 237.57 93.37L237.57 62.22C237.57 49.31 231.12 42.62 217.97 42.62L182.7 42.62C172.1 42.62 167.26 49.08 167.26 62.22L167.26 93.57C167.26 106.49 173.71 113.17 186.85 113.17L217.97 112.94L217.97 112.97Z" />
	<path id="Layer" class="shp0" d="M401.49 73.78L401.49 136.22L323.56 136.22C297.51 136.22 284.56 123.3 284.56 97.22L284.56 58.1C284.56 32.05 297.47 19.1 323.56 19.1L401.49 19.1L401.49 42.61L326.56 42.61C314.11 42.61 307.66 48.84 307.66 61.29L307.66 94.03C307.66 106.48 313.88 112.93 326.56 112.93L377.97 112.93L377.97 73.78L401.49 73.78Z" />
	<path id="Layer" class="shp0" d="M448.34 54.64L448.34 136.22L424.77 136.22L424.77 19.14L448.77 19.14L518.62 100.75L518.62 19.14L542.14 19.14L542.14 136.49L518.14 136.49L448.34 54.64Z" />
	<path id="Layer" class="shp0" d="M589.15 136.22L565.63 136.22L565.63 19.14L589.15 19.14L589.15 136.22Z" />
	<path id="Layer" class="shp0" d="M729.78 73.78L729.78 136.22L651.86 136.22C625.8 136.22 612.86 123.3 612.86 97.22L612.86 58.1C612.86 32.05 625.77 19.1 651.86 19.1L729.78 19.1L729.78 42.61L654.85 42.61C642.4 42.61 635.95 48.84 635.95 61.29L635.95 94.03C635.95 106.48 642.17 112.93 654.85 112.93L706.26 112.93L706.26 73.78L729.78 73.78Z" />
	<path id="Layer" fill-rule="evenodd" class="shp0" d="M866.41 19.03L866.41 25.94L866.18 47.15C866.18 73.24 853.23 86.15 827.18 86.15L819.49 86.15L819.49 136.22L795.97 136.22L795.97 86.22L788.22 86.22C762.13 86.22 749.22 73.22 749.22 47.22L749.22 19.09L772.51 19.09L772.74 44.22C772.74 56.9 778.96 63.12 791.41 63.12L823.92 63.12C836.6 63.12 842.82 56.9 842.82 44.22L842.82 19.07L866.34 19.07L866.41 19.03ZM874.03 136.88L874.03 112.88L898.03 112.88L898.03 136.88L874.03 136.88ZM1017.78 136.88L978.78 47.2L939.9 136.88L913.79 136.88L965.79 17.1L991.79 17.1L1043.79 136.88L1017.78 136.88ZM1083.52 136.88L1059.52 136.88L1059.52 17.1L1083.52 17.1L1083.52 136.88Z" />
</svg>