<svg version="1.2" baseProfile="tiny-ps" xmlns="http://www.w3.org/2000/svg" viewBox="0 0 158 158" width="158" height="158">
	<title>Cognigy-blue-svg</title>
	<style>
		tspan { white-space:pre }
		.s0 { fill: #0b3694 } 
	</style>
	<path id="Layer" class="s0" d="m137.22 112.97v23.52h-77.88c-26.05 0-39-12.91-39-39v-39.16c0-26.05 12.91-39 39-39h77.92v23.52h-74.92c-12.45 0-18.91 6.22-18.91 18.67v32.51c0 12.45 6.23 18.9 18.91 18.9l74.88 0.04z" />
	<path id="Layer" fill-rule="evenodd" class="s0" d="m238.89 136.22h-39c-26 0-39-12.92-39-39v-39.12c0-26.05 12.91-39 39-39h39c26.06 0 39 12.91 39 39v39c-0.03 26.01-13.18 39.12-39 39.12zm-3.92-23.25c12.92 0 19.6-6.45 19.6-19.6v-31.15c0-12.91-6.45-19.6-19.6-19.6h-35.27c-10.6 0-15.44 6.46-15.44 19.6v31.35c0 12.92 6.45 19.6 19.59 19.6l31.12-0.23v0.03z" />
	<path id="Layer" class="s0" d="m418.49 73.78v62.44h-77.93c-26.05 0-39-12.92-39-39v-39.12c0-26.05 12.91-39 39-39h77.93v23.51h-74.93c-12.45 0-18.9 6.23-18.9 18.68v32.74c0 12.45 6.22 18.9 18.9 18.9h51.41v-39.15h23.52z" />
	<path id="Layer" class="s0" d="m465.34 54.64v81.58h-23.57v-117.08h24l69.85 81.61v-81.61h23.52v117.35h-24l-69.8-81.85z" />
	<path id="Layer" class="s0" d="m606.15 136.22h-23.52v-117.08h23.52v117.08z" />
	<path id="Layer" class="s0" d="m746.78 73.78v62.44h-77.92c-26.06 0-39-12.92-39-39v-39.12c0-26.05 12.91-39 39-39h77.92v23.51h-74.93c-12.45 0-18.9 6.23-18.9 18.68v32.74c0 12.45 6.22 18.9 18.9 18.9h51.41v-39.15h23.52z" />
	<path id="Layer" fill-rule="evenodd" class="s0" d="m883.41 19.03v6.91l-0.23 21.21c0 26.09-12.95 39-39 39h-7.69v50.07h-23.52v-50h-7.75c-26.09 0-39-13-39-39v-28.13h23.29l0.23 25.13c0 12.68 6.22 18.9 18.67 18.9h32.51c12.68 0 18.9-6.22 18.9-18.9v-25.15h23.52l0.07-0.04zm7.62 117.85v-24h24v24h-24zm143.75 0l-39-89.68l-38.88 89.68h-26.11l52-119.78h26l52 119.78h-26.01zm65.74 0h-24v-119.78h24v119.78z" />
</svg>