<svg xmlns="http://www.w3.org/2000/svg" width="80" height="80" viewBox="0 0 24 24" class="custom-block__image replaced-svg">
<g stroke="#0b3694" stroke-linecap="round" stroke-linejoin="round" stroke-width="0.5" stroke-miterlimit="10" fill="none">
<path d="M3.5 3.5h11"></path>
<path stroke="#0b3694" d="M3.5 6.5h5v6h-5zM11.5 8.5h3M10.5 10.5h4M10.5 12.5h4M3.5 14.5h11M3.5 16.5h11M3.5 14.5h11M3.5"></path>
<path d="M3.5 16.5h11M3.5 18.5h11M19.5 5.5h2v15c0 .552-.447 1-1 1-.552 0-1-.448-1-1v-18.5h-2v2M20.5 23.5h-17c-1.656 0-3-1.343-3-3v-20h17v20c0 1.657 1.344 3 3 3 1.657 0 3-1.343 3-3v-17h-4"></path>
</g>
</svg>