<?xml version="1.0" encoding="utf-8"?>
<!-- Generator: Adobe Illustrator 21.1.0, SVG Export Plug-In . SVG Version: 6.00 Build 0)  -->
<svg version="1.1" id="Ebene_1" xmlns="http://www.w3.org/2000/svg" xmlns:xlink="http://www.w3.org/1999/xlink" x="0px" y="0px"
	 width="48px" height="48px" viewBox="0 0 140.4 140.4" style="enable-background:new 0 0 140.4 140.4;" xml:space="preserve">
<style type="text/css">
	.st0{fill:#124791;}
	.st1{fill:#2E6EB1;}
	.st2{fill:#4694D0;}
</style>
<path class="st0" d="M18.7,45c21.2-21.2,55.5-21.2,76.7,0c21.2,21.2,21.2,55.5,0,76.7c-12.9,12.9-30.7,18-47.5,15.1
	c24.4,8.1,52.5,2.5,71.9-16.9c27.4-27.4,27.4-71.9,0-99.3C92.4-6.9,48-6.9,20.6,20.6C1.1,40-4.5,68,3.6,92.5
	C0.8,75.7,5.8,57.9,18.7,45z"/>
<path class="st1" d="M23.1,74.3c11.9-11.9,31.2-11.9,43,0c11.9,11.9,11.9,31.2,0,43c-7.3,7.3-17.3,10.1-26.7,8.5
	c13.7,4.6,29.4,1.4,40.4-9.5c15.4-15.4,15.4-40.3,0-55.7c-15.4-15.4-40.3-15.4-55.7,0C13.2,71.5,10,87.2,14.6,100.9
	C13,91.5,15.8,81.5,23.1,74.3z"/>
<path class="st2" d="M25.5,94c5.8-5.8,15.2-5.8,20.9,0c5.8,5.8,5.8,15.2,0,20.9c-3.5,3.5-8.4,4.9-13,4.1c6.7,2.2,14.3,0.7,19.6-4.6
	c7.5-7.5,7.5-19.6,0-27.1c-7.5-7.5-19.6-7.5-27.1,0c-5.3,5.3-6.9,13-4.6,19.6C20.6,102.4,21.9,97.5,25.5,94z"/>
</svg>
