<svg version="1.2" baseProfile="tiny-ps" xmlns="http://www.w3.org/2000/svg" viewBox="0 0 141 141" width="141" height="141">
	<title>webchat-svg</title>
	<style>
		tspan { white-space:pre }
		.shp0 { fill: #124791 } 
		.shp1 { fill: #0b3694 } 
	</style>
	<path id="Layer" class="shp0" d="M18.7 45C39.9 23.8 74.2 23.8 95.4 45C116.6 66.2 116.6 100.5 95.4 121.7C82.5 134.6 64.7 139.7 47.9 136.8C72.3 144.9 100.4 139.3 119.8 119.9C147.2 92.5 147.2 48 119.8 20.6C92.4 -6.9 48 -6.9 20.6 20.6C1.1 40 -4.5 68 3.6 92.5C0.8 75.7 5.8 57.9 18.7 45Z" />
	<path id="Layer" class="shp1" d="M23.1 74.3C35 62.4 54.3 62.4 66.1 74.3C78 86.2 78 105.5 66.1 117.3C58.8 124.6 48.8 127.4 39.4 125.8C53.1 130.4 68.8 127.2 79.8 116.3C95.2 100.9 95.2 76 79.8 60.6C64.4 45.2 39.5 45.2 24.1 60.6C13.2 71.5 10 87.2 14.6 100.9C13 91.5 15.8 81.5 23.1 74.3Z" />
	<path id="Layer" class="shp1" d="M25.5 94C31.3 88.2 40.7 88.2 46.4 94C52.2 99.8 52.2 109.2 46.4 114.9C42.9 118.4 38 119.8 33.4 119C40.1 121.2 47.7 119.7 53 114.4C60.5 106.9 60.5 94.8 53 87.3C45.5 79.8 33.4 79.8 25.9 87.3C20.6 92.6 19 100.3 21.3 106.9C20.6 102.4 21.9 97.5 25.5 94Z" />
</svg>