<?xml version="1.0" encoding="UTF-8"?>
<svg width="121.1379" height="106.1152" version="1.1" viewBox="0 0 121.1379 106.1152" xmlns="http://www.w3.org/2000/svg">
<title>8x8 (company) logo</title>
<desc>American provider of Voice over Internet Protocol (VoIP) software</desc>
 <rect width="121.1379" height="106.1152" fill="#a21b29" stroke-width="4.92472"/>
 <path d="m71.71548 49.06041h-9.33323l-2.15109 4.09524c-0.29293 0.63429-0.781033 1.35055-0.781033 1.35055h-0.0978s-0.4391-0.71626-0.78076-1.35055l-2.151379-4.09524h-9.328356l7.331183 11.31635-7.301087 11.32668h9.170428l2.474401-4.72865c0.24421-0.43912 0.58557-1.29038 0.58557-1.29038h0.0978s0.34164 0.85126 0.585553 1.29038l2.51509 4.72865h9.17847l-7.3008-11.32668 7.28704-11.31635m-41.34334 16.88024c-2.585886 0-4.632933-1.99315-4.632933-4.47099 0-2.10122 1.131292-3.71719 2.047047-4.68683 3.771071 1.72373 7.218832 3.01668 7.218832 5.22539 0 2.532-1.777622 3.93243-4.632946 3.93243zm0.269431-23.21829c2.532007 0 4.040208 1.40071 4.040208 3.55553 0 2.37036-1.023527 4.14826-1.346834 4.74071-3.393583-1.4546-6.195024-2.74726-6.195024-5.27927 0-1.67014 1.077411-3.01697 3.50165-3.01697zm9.481125 11.63624c0.377202-0.48497 3.771077-4.63295 3.771077-8.78092 0-7.16495-5.872006-11.15127-13.03666-11.15127-8.996459 0-12.92918 5.4948-12.92918 11.09739 0 3.2861 1.454598 5.60257 3.501646 7.38019-1.185176 0.91576-5.333155 4.4174-5.333155 9.37365 0 6.14114 4.902361 11.95925 14.27572 11.95925 9.535021 0 14.27573-5.87199 14.27573-11.74371 0-3.87884-1.93928-6.35696-4.525173-8.13458zm48.22482 11.58205c-2.58562 0-4.63265-1.99315-4.63265-4.47099 0-2.10122 1.13129-3.71719 2.04703-4.68683 3.77079 1.72373 7.21855 3.01668 7.21855 5.22539 0 2.532-1.77763 3.93243-4.63293 3.93243zm0.26942-23.21829c2.53201 0 4.04049 1.40071 4.04049 3.55553 0 2.37036-1.02381 4.14826-1.34711 4.74071-3.3936-1.4546-6.19503-2.74726-6.19503-5.27927 0-1.67014 1.07741-3.01697 3.50165-3.01697zm9.48141 11.63624c0.37691-0.48497 3.770794-4.63295 3.770794-8.78092 0-7.16495-5.872004-11.15127-13.03666-11.15127-8.99645 0-12.92889 5.4948-12.92889 11.09739 0 3.2861 1.4543 5.60257 3.50164 7.38019-1.18517 0.91576-5.33344 4.4174-5.33344 9.37365 0 6.14114 4.90237 11.95925 14.27573 11.95925 9.5353 0 14.27572-5.87199 14.27572-11.74371 0-3.87884-1.93928-6.35696-4.524894-8.13458z" clip-rule="evenodd" fill="#f9f9f9" fill-rule="evenodd" stroke-width=".286621"/>
</svg>
