<?xml version="1.0" encoding="UTF-8"?>
<svg width="148px" height="32px" viewBox="0 0 148 32" version="1.1" xmlns="http://www.w3.org/2000/svg" xmlns:xlink="http://www.w3.org/1999/xlink">
    <title>ringcentral_2.0_logo_POS Copy</title>
    <g id="Page-1" stroke="none" stroke-width="1" fill="none" fill-rule="evenodd">
        <g id="ringcentral_2.0_logo_POS-Copy" transform="translate(0.000000, -0.000000)">
            <polygon id="Path" fill="#FF7A00" fill-rule="nonzero" points="147.958422 3.7441473 144.485408 3.7441473 144.485408 25.9085856 147.958422 25.9085856"></polygon>
            <path d="M135.769428,11.1743536 C132.563664,11.1743536 130.077193,12.730259 129.657361,15.9066011 L133.0715,15.9066011 C133.31224,14.7089091 134.195983,13.9896774 135.769428,13.9896774 C137.595481,13.9896774 138.43499,15.0377157 138.43499,16.6846154 L138.43499,17.4331922 L134.929764,17.4331922 C131.700573,17.4331922 129.31382,18.8717789 129.31382,21.807365 C129.31382,24.7431053 131.260243,26.2696964 134.075613,26.2696964 C136.262622,26.2696964 137.701055,25.3389459 138.479069,23.8417924 L138.628723,23.8417924 L138.628723,25.8967181 L141.922646,25.8967181 L141.922646,16.7962007 C141.908004,13.2851028 140.111235,11.1743536 135.769428,11.1743536 Z M135.06493,23.6039801 C133.71743,23.6039801 132.877767,22.9435619 132.877767,21.8426593 C132.877767,20.5831638 133.776151,19.9256739 135.393675,19.9256739 L138.41742,19.9256739 L138.43499,20.1340486 C138.43499,22.3122729 137.175649,23.6039801 135.06493,23.6039801 Z" id="Shape" fill="#FF7A00"></path>
            <path d="M123.157828,25.9085856 L123.157828,18.4519471 C123.157828,16.2355002 124.53754,14.8263356 126.721621,14.8263356 L128.089773,14.8263356 L128.089773,11.5325053 L126.680624,11.5325053 C125.033662,11.5325053 123.83597,12.1607426 123.08724,13.569861 L122.966869,13.569861 L122.966869,11.5325053 L119.702538,11.5325053 L119.702538,25.9173706 L123.157828,25.9085856 Z" id="Path" fill="#FF7A00"></path>
            <path d="M117.497805,22.7350331 L117.497805,25.9085856 L115.13155,25.9085856 C111.805569,25.9085856 109.979517,24.3673527 109.979517,21.0412182 L109.979517,14.38599 L107.613416,14.38599 L107.613416,11.5325053 L109.979517,11.5325053 L109.979517,7.71612003 L113.455305,7.71612003 L113.455305,11.5325053 L117.497805,11.5325053 L117.497805,14.38599 L113.455305,14.38599 L113.455305,20.6389564 C113.455305,21.9571729 114.233319,22.7350331 115.551382,22.7350331 L117.497805,22.7350331 Z" id="Path" fill="#FF7A00"></path>
            <path d="M96.231566,25.9085856 L96.231566,17.583 C96.231566,15.5456444 97.4910615,14.2127862 99.5254888,14.2127862 C101.471758,14.2127862 102.640166,15.3371464 102.640166,17.5389208 L102.640166,25.9085856 L106.119037,25.9085856 L106.119037,16.984077 C106.119037,13.3584963 104.357562,11.1743536 100.758475,11.1743536 C98.5683832,11.1743536 96.8950668,12.1607426 96.14649,13.5082117 L96.0231914,13.5082117 L96.0231914,11.5325053 L92.7674912,11.5325053 L92.7674912,25.9173706 L96.231566,25.9085856 Z" id="Path" fill="#FF7A00"></path>
            <path d="M83.4615274,23.4248889 C81.2743639,23.4248889 79.8064938,21.9571729 79.7477728,19.6496391 L90.3808921,19.6496391 L90.3662504,18.5253098 C90.3662504,13.7049038 87.2514189,11.1860978 83.4467316,11.1860978 C79.3368802,11.1860978 76.3336339,14.1217764 76.3336339,18.7336844 C76.3336339,23.3456695 79.1195664,26.2814098 83.4467316,26.2814098 C87.0693993,26.2814098 89.4354999,24.3644244 90.1255099,21.5490544 L86.7552961,21.5490544 C86.3824719,22.6293045 85.4665172,23.4248889 83.4615274,23.4248889 Z M83.4467316,14.0630555 C85.7218995,14.0630555 87.0693993,15.3518189 87.1604862,17.1485265 L79.7331311,17.1485265 C80.0618761,15.3224739 81.1686354,14.0630555 83.4467316,14.0630555 Z" id="Shape" fill="#FF7A00"></path>
            <path d="M65.9383268,26.2989798 C71.1197974,26.2989798 74.0555377,23.4248889 74.7453935,19.1564446 L71.2225977,19.1564446 C70.6999656,21.1028675 69.2820314,22.8994826 65.9383268,22.8994826 C62.4947504,22.8994826 59.7382555,20.5509521 59.7382555,15.4104783 C59.7382555,10.2701586 62.4947504,7.9274847 65.9383268,7.9274847 C69.3819033,7.9274847 70.7616149,9.72413061 71.2225977,11.641116 L74.7453935,11.641116 C74.175908,7.37264089 71.284247,4.59549348 65.9383268,4.59549348 C60.1873707,4.59549348 56.0245009,8.60857089 56.0245009,15.4574859 C56.0245009,22.3064162 60.1873707,26.3194782 65.9383268,26.3194782 L65.9383268,26.2989798 Z" id="Path" fill="#FF7A00"></path>
            <path d="M50.3792734,11.5324899 L50.3792734,13.5052679 L50.2148238,13.5052679 C49.4369636,12.1284384 47.8192857,11.1714099 45.5177627,11.1714099 C42.1475489,11.1714099 39.1091625,13.8370028 39.1091625,18.5399515 C39.1091625,23.2428693 42.1036238,25.937869 45.5177627,25.937869 C47.7342096,25.937869 49.0405585,25.036556 50.0415892,23.5101191 L50.2001821,23.5101191 L50.2001821,26.5397204 C50.2001821,28.1572442 49.3017975,28.905821 47.8340815,28.905821 L40.7883357,28.905821 L40.7883357,32 L47.7664214,32 C51.6298297,32 53.6966229,29.8422741 53.6966229,26.3077649 L53.6966229,11.5324899 L50.3792734,11.5324899 Z M46.4717858,22.793754 C44.1644062,22.793754 42.696536,21.3582498 42.696536,18.5428798 C42.696536,15.7275098 44.1497645,14.2891081 46.4717858,14.2891081 C48.7176703,14.2891081 50.2148238,15.7245815 50.2148238,18.5428798 C50.2148238,21.3611781 48.732312,22.793754 46.4717858,22.793754 Z" id="Shape" fill="#0684BC"></path>
            <path d="M27.1051167,25.9085856 L27.1051167,17.583 C27.1051167,15.5456444 28.3646121,14.2127862 30.4019678,14.2127862 C32.3482366,14.2127862 33.5166452,15.3371464 33.5166452,17.5389208 L33.5166452,25.9085856 L36.989505,25.9085856 L36.989505,16.984077 C36.989505,13.3584963 35.2281842,11.1743536 31.6290973,11.1743536 C29.4419338,11.1743536 27.7510473,12.1607426 27.0023164,13.5082117 L26.8821003,13.5082117 L26.8821003,11.5325053 L23.6322568,11.5325053 L23.6322568,25.9173706 L27.1051167,25.9085856 Z" id="Path" fill="#0684BC"></path>
            <polygon id="Path" fill="#0684BC" fill-rule="nonzero" points="20.6965165 11.5325053 17.2236566 11.5325053 17.2236566 25.9085856 20.6965165 25.9085856"></polygon>
            <path d="M11.1732081,15.9947596 L11.1732081,15.8538909 C13.2986298,15.2666966 14.737124,13.839962 14.737124,10.6341978 C14.737124,7.34035206 12.279952,4.94190097 7.72671871,4.94190097 L-1.09511178e-15,4.94190097 L-1.09511178e-15,25.9085856 L3.59327102,25.9085856 L3.59327102,17.583 L7.96744387,17.583 C10.0047995,17.583 11.0234774,18.6016008 11.0234774,20.6389564 L11.0234774,25.9232273 L14.6167538,25.9232273 L14.6167538,20.6389564 C14.6167538,17.6739328 13.3573508,16.4762407 11.1732081,15.9947596 Z M7.53295493,14.3478291 L3.59327102,14.3478291 L3.59327102,8.1828978 L7.53295493,8.1828978 C9.4793162,8.1828978 10.976516,8.99315471 10.976516,11.2683072 C10.976516,13.5434596 9.46464366,14.3478291 7.53295493,14.3478291 Z" id="Shape" fill="#0684BC"></path>
            <path d="M18.9586224,9.22506402 C19.4152897,9.22564968 19.8617848,9.09073016 20.2416987,8.83741314 C20.6216126,8.58409611 20.9178375,8.22374047 21.0927674,7.80199752 C21.2678515,7.38023916 21.3137802,6.91605067 21.2248511,6.46818382 C21.135922,6.02030157 20.915988,5.60888488 20.5932539,5.28601202 C20.2703656,4.96312374 19.8588565,4.74331312 19.4109742,4.65436857 C18.9630919,4.56542403 18.4988726,4.61136818 18.0771913,4.78637516 C17.65551,4.96138215 17.2951698,5.25759168 17.0417911,5.63750557 C16.7884124,6.01740405 16.6535546,6.46393002 16.6541711,6.92055106 C16.6501639,7.37763448 16.7834805,7.82537802 17.0368592,8.20586217 C17.2900837,8.58634631 17.6518111,8.88207807 18.0750336,9.05478861 C18.3549215,9.17113628 18.655616,9.22907122 18.9586224,9.22506402 Z" id="Path" fill="#FF7A00"></path>
            <path d="M16.3106303,0.526635773 C15.4694254,0.878751986 14.7054517,1.39240173 14.06191,2.03851118 L15.6912088,3.66781004 C16.1182844,3.23828387 16.6258124,2.89708575 17.1848175,2.66372769 C17.7438227,2.43038504 18.3433622,2.30942909 18.9490667,2.30779538 C19.5547712,2.30616167 20.1549273,2.42386562 20.7151654,2.65420287 C21.2754035,2.88454011 21.7849351,3.22297942 22.2143226,3.65019375 L23.8435598,2.02089489 C22.8761279,1.05536648 21.6442205,0.398137028 20.3035021,0.1321896 C18.9627837,-0.133759061 17.5733623,0.0035000509 16.3106303,0.526635773 Z" id="Path" fill="#FF7A00"></path>
        </g>
    </g>
</svg>