<svg width="20" height="20" xmlns="http://www.w3.org/2000/svg" viewBox="0 0 30 30" aria-hidden="true">
    <path fill="#0b3694" fill-rule="evenodd" d="M11.463 28.891c4.52-4.63 12.292-4.63 17.58-.043.313.272.347.745.075 1.058-.271.313-.745.347-1.058.075-4.708-4.083-11.58-4.083-15.523-.042-.29.296-.765.302-1.06.013-.297-.29-.303-.765-.014-1.061zM20.402 10c3.682 0 6.667 2.985 6.667 6.667s-2.985 6.666-6.667 6.666-6.666-2.984-6.666-6.666c0-3.682 2.984-6.667 6.666-6.667zm0 1.5c-2.853 0-5.166 2.313-5.166 5.167 0 2.853 2.313 5.166 5.166 5.166 2.854 0 5.167-2.313 5.167-5.166 0-2.854-2.313-5.167-5.167-5.167z"></path>
</svg>