<svg version="1.2" xmlns="http://www.w3.org/2000/svg" viewBox="0 0 1506 627" width="151" height="63">
	<title>q4_2021_investors_presentation-1-pdf-svg</title>
	<defs>
		<clipPath clipPathUnits="userSpaceOnUse" id="cp1">
			<path d="m-666.37-605.78h13529.3v7608h-13529.3z"/>
		</clipPath>
	</defs>
	<style>
		.s0 { fill: #000000 } 
		.s1 { fill: #23c9ff } 
	</style>
	<g id="Clip-Path: Page 1" clip-path="url(#cp1)">
		<g id="Page 1">
			<path id="Path 6" class="s0" d="m1158.7 9.9h346.7v142.3h-209.3v88.8h171.2v140.1h-171.2v91.6h209.3v140.2h-346.7zm-192.4 233.2c-5.6-35.2-16.9-62.7-28.2-74.7-16.2-14.1-33.1-21.8-47.9-21.8-26.8 0-47.2 17.6-58.5 47.2-12.7 35.9-18.3 77.5-18.3 126.8 0 107 26.1 162 78.2 162 41.6 0 67.7-37.3 74.7-105 133.2 0 133.2 0 133.2 0-5.7 75.4-24.7 136.7-58.5 182.5-35.2 45.8-86 66.9-141.6 66.9-45.1 0-86-11.3-119.8-35.2-35.3-24-59.9-59.2-76.8-107.1-18.4-43.7-29.6-102.8-29.6-164.1 0-69.1 11.2-130.4 29.6-180.4 22.5-47.2 50.7-84.5 82.4-106.3 31.7-19.8 67-33.9 99.4-33.9 72.5 2.2 128.9 29.6 158.5 73.3 29.6 47.2 48.6 105 52.2 169.8zm-484.1-233.2h140.2v603.7h-140.2zm-482 0h124l146.6 333.9v-132.4-201.5h133.1v603.7h-131l-143.1-325.4v140.2 185.2h-129.6z"/>
			<path id="Path 7" class="s1" d="m1099.5 244.5h128.2v133.8h-128.2zm-477.1 0h123.3v133.2h-123.3zm-264.2 0h124v133.8h-124z"/>
		</g>
	</g>
</svg>