<svg width="116" height="26" viewBox="0 0 116 26" fill="none" xmlns="http://www.w3.org/2000/svg">
<mask id="mask0_1336_246476" style="mask-type:alpha" maskUnits="userSpaceOnUse" x="0" y="0" width="116" height="26">
<path d="M24.2304 25.6335H3.68241C2.32724 25.6335 1.02664 24.9286 0.410657 23.7222C-0.314883 22.3395 -0.0410631 20.6856 1.05407 19.6012L15.3596 5.43581H5.10607C2.28604 5.43581 0 3.17212 0 0.379697H18.9325C20.2878 0.379697 21.5882 1.08445 22.2043 2.29089C22.9298 3.6735 22.656 5.32733 21.5609 6.41174L7.2554 20.5773H19.1106C21.9306 20.5773 24.2167 22.8411 24.2167 25.6335H24.2304ZM105.586 0.000107219C102.644 0.000107219 100.002 1.2608 98.1811 3.26699C96.3606 1.2608 93.704 -0.0134562 90.7746 0.000107219C85.3129 0.000107219 80.8505 4.62254 80.8505 10.0312V25.6335C83.6703 25.6335 85.9563 23.3697 85.9563 20.5773V9.96326C85.9563 7.36065 87.9963 5.15117 90.61 5.0562C93.3616 4.94785 95.649 7.14382 95.649 9.85491V20.5908C95.649 23.3832 97.935 25.647 100.755 25.647V9.99041C100.755 7.3878 102.795 5.17832 105.408 5.08335C108.16 4.975 110.447 7.17097 110.447 9.88206V20.6178C110.447 23.4102 112.733 25.674 115.553 25.674V10.0719C115.553 4.6632 111.089 0.0543605 105.628 0.0408104L105.586 0.000107219ZM49.9803 12.9997C49.9803 20.1705 44.0937 25.9995 36.8521 25.9995C29.6103 25.9995 23.7239 20.1705 23.7239 12.9997C23.7239 5.82894 29.6103 0.000107219 36.8521 0.000107219C44.0937 0.000107219 49.9803 5.82894 49.9803 12.9997ZM44.8741 12.9997C44.8741 8.60771 41.2737 5.04269 36.8383 5.04269C32.4029 5.04269 28.8027 8.60771 28.8027 12.9997C28.8027 17.3917 32.4029 20.9568 36.8383 20.9568C41.2737 20.9568 44.8741 17.3917 44.8741 12.9997ZM78.2769 12.9997C78.2769 20.1705 72.3899 25.9995 65.1482 25.9995C57.9064 25.9995 52.0199 20.1705 52.0199 12.9997C52.0199 5.82894 57.9064 0.000107219 65.1482 0.000107219C72.3899 0.000107219 78.2769 5.82894 78.2769 12.9997ZM73.1703 12.9997C73.1703 8.60771 69.5699 5.04269 65.1345 5.04269C60.6991 5.04269 57.0989 8.60771 57.0989 12.9997C57.0989 17.3917 60.6991 20.9568 65.1345 20.9568C69.5699 20.9568 73.1703 17.3917 73.1703 12.9997Z" fill="#0B5CFF"/>
</mask>
<g mask="url(#mask0_1336_246476)">
<rect width="115.553" height="25.9995" fill="#0B5CFF"/>
</g>
</svg>
